<?xml version="1.0" encoding="utf-8" standalone="no"?>
<!DOCTYPE svg PUBLIC "-//W3C//DTD SVG 1.1//EN"
  "http://www.w3.org/Graphics/SVG/1.1/DTD/svg11.dtd">
<svg xmlns:xlink="http://www.w3.org/1999/xlink" width="612.488142pt" height="393.994459pt" viewBox="0 0 612.488142 393.994459" xmlns="http://www.w3.org/2000/svg" version="1.1">
 <metadata>
  <rdf:RDF xmlns:dc="http://purl.org/dc/elements/1.1/" xmlns:cc="http://creativecommons.org/ns#" xmlns:rdf="http://www.w3.org/1999/02/22-rdf-syntax-ns#">
   <cc:Work>
    <dc:type rdf:resource="http://purl.org/dc/dcmitype/StillImage"/>
    <dc:date>2026-06-17T22:45:22.581596</dc:date>
    <dc:format>image/svg+xml</dc:format>
    <dc:creator>
     <cc:Agent>
      <dc:title>Matplotlib v3.9.4, https://matplotlib.org/</dc:title>
     </cc:Agent>
    </dc:creator>
   </cc:Work>
  </rdf:RDF>
 </metadata>
 <defs>
  <style type="text/css">*{stroke-linejoin: round; stroke-linecap: butt}</style>
 </defs>
 <g id="figure_1">
  <g id="patch_1">
   <path d="M 0 393.994459 
L 612.488142 393.994459 
L 612.488142 0 
L 0 0 
z
" style="fill: #ffffff"/>
  </g>
  <g id="axes_1">
   <g id="patch_2">
    <path d="M 42.843438 354.502584 
L 508.174247 354.502584 
L 508.174247 23.077969 
L 42.843438 23.077969 
z
" style="fill: #ffffff"/>
   </g>
   <g id="patch_3">
    <path d="M 42.843438 354.502584 
L 204.697632 354.502584 
L 204.697632 23.077969 
L 42.843438 23.077969 
z
" clip-path="url(#p8d9bdd5d2c)" style="fill: #dc2626; opacity: 0.04; stroke: #dc2626; stroke-linejoin: miter"/>
   </g>
   <g id="patch_4">
    <path d="M 386.783601 354.502584 
L 508.174247 354.502584 
L 508.174247 23.077969 
L 386.783601 23.077969 
z
" clip-path="url(#p8d9bdd5d2c)" style="fill: #16a34a; opacity: 0.05; stroke: #16a34a; stroke-linejoin: miter"/>
   </g>
   <g id="matplotlib.axis_1">
    <g id="xtick_1">
     <g id="line2d_1">
      <path d="M 42.843438 354.502584 
L 42.843438 23.077969 
" clip-path="url(#p8d9bdd5d2c)" style="fill: none; stroke: #e5e7eb; stroke-width: 0.8; stroke-linecap: square"/>
     </g>
     <g id="line2d_2">
      <defs>
       <path id="m06de225654" d="M 0 0 
L 0 3.5 
" style="stroke: #16213e; stroke-width: 0.8"/>
      </defs>
      <g>
       <use xlink:href="#m06de225654" x="42.843438" y="354.502584" style="fill: #16213e; stroke: #16213e; stroke-width: 0.8"/>
      </g>
     </g>
     <g id="text_1">
      <!-- 0 -->
      <g style="fill: #16213e" transform="translate(39.344063 369.860865) scale(0.11 -0.11)">
       <defs>
        <path id="DejaVuSans-30" d="M 2034 4250 
Q 1547 4250 1301 3770 
Q 1056 3291 1056 2328 
Q 1056 1369 1301 889 
Q 1547 409 2034 409 
Q 2525 409 2770 889 
Q 3016 1369 3016 2328 
Q 3016 3291 2770 3770 
Q 2525 4250 2034 4250 
z
M 2034 4750 
Q 2819 4750 3233 4129 
Q 3647 3509 3647 2328 
Q 3647 1150 3233 529 
Q 2819 -91 2034 -91 
Q 1250 -91 836 529 
Q 422 1150 422 2328 
Q 422 3509 836 4129 
Q 1250 4750 2034 4750 
z
" transform="scale(0.015625)"/>
       </defs>
       <use xlink:href="#DejaVuSans-30"/>
      </g>
     </g>
    </g>
    <g id="xtick_2">
     <g id="line2d_3">
      <path d="M 123.770535 354.502584 
L 123.770535 23.077969 
" clip-path="url(#p8d9bdd5d2c)" style="fill: none; stroke: #e5e7eb; stroke-width: 0.8; stroke-linecap: square"/>
     </g>
     <g id="line2d_4">
      <g>
       <use xlink:href="#m06de225654" x="123.770535" y="354.502584" style="fill: #16213e; stroke: #16213e; stroke-width: 0.8"/>
      </g>
     </g>
     <g id="text_2">
      <!-- 2 -->
      <g style="fill: #16213e" transform="translate(120.27116 369.860865) scale(0.11 -0.11)">
       <defs>
        <path id="DejaVuSans-32" d="M 1228 531 
L 3431 531 
L 3431 0 
L 469 0 
L 469 531 
Q 828 903 1448 1529 
Q 2069 2156 2228 2338 
Q 2531 2678 2651 2914 
Q 2772 3150 2772 3378 
Q 2772 3750 2511 3984 
Q 2250 4219 1831 4219 
Q 1534 4219 1204 4116 
Q 875 4013 500 3803 
L 500 4441 
Q 881 4594 1212 4672 
Q 1544 4750 1819 4750 
Q 2544 4750 2975 4387 
Q 3406 4025 3406 3419 
Q 3406 3131 3298 2873 
Q 3191 2616 2906 2266 
Q 2828 2175 2409 1742 
Q 1991 1309 1228 531 
z
" transform="scale(0.015625)"/>
       </defs>
       <use xlink:href="#DejaVuSans-32"/>
      </g>
     </g>
    </g>
    <g id="xtick_3">
     <g id="line2d_5">
      <path d="M 204.697632 354.502584 
L 204.697632 23.077969 
" clip-path="url(#p8d9bdd5d2c)" style="fill: none; stroke: #e5e7eb; stroke-width: 0.8; stroke-linecap: square"/>
     </g>
     <g id="line2d_6">
      <g>
       <use xlink:href="#m06de225654" x="204.697632" y="354.502584" style="fill: #16213e; stroke: #16213e; stroke-width: 0.8"/>
      </g>
     </g>
     <g id="text_3">
      <!-- 4 -->
      <g style="fill: #16213e" transform="translate(201.198257 369.860865) scale(0.11 -0.11)">
       <defs>
        <path id="DejaVuSans-34" d="M 2419 4116 
L 825 1625 
L 2419 1625 
L 2419 4116 
z
M 2253 4666 
L 3047 4666 
L 3047 1625 
L 3713 1625 
L 3713 1100 
L 3047 1100 
L 3047 0 
L 2419 0 
L 2419 1100 
L 313 1100 
L 313 1709 
L 2253 4666 
z
" transform="scale(0.015625)"/>
       </defs>
       <use xlink:href="#DejaVuSans-34"/>
      </g>
     </g>
    </g>
    <g id="xtick_4">
     <g id="line2d_7">
      <path d="M 285.624729 354.502584 
L 285.624729 23.077969 
" clip-path="url(#p8d9bdd5d2c)" style="fill: none; stroke: #e5e7eb; stroke-width: 0.8; stroke-linecap: square"/>
     </g>
     <g id="line2d_8">
      <g>
       <use xlink:href="#m06de225654" x="285.624729" y="354.502584" style="fill: #16213e; stroke: #16213e; stroke-width: 0.8"/>
      </g>
     </g>
     <g id="text_4">
      <!-- 6 -->
      <g style="fill: #16213e" transform="translate(282.125354 369.860865) scale(0.11 -0.11)">
       <defs>
        <path id="DejaVuSans-36" d="M 2113 2584 
Q 1688 2584 1439 2293 
Q 1191 2003 1191 1497 
Q 1191 994 1439 701 
Q 1688 409 2113 409 
Q 2538 409 2786 701 
Q 3034 994 3034 1497 
Q 3034 2003 2786 2293 
Q 2538 2584 2113 2584 
z
M 3366 4563 
L 3366 3988 
Q 3128 4100 2886 4159 
Q 2644 4219 2406 4219 
Q 1781 4219 1451 3797 
Q 1122 3375 1075 2522 
Q 1259 2794 1537 2939 
Q 1816 3084 2150 3084 
Q 2853 3084 3261 2657 
Q 3669 2231 3669 1497 
Q 3669 778 3244 343 
Q 2819 -91 2113 -91 
Q 1303 -91 875 529 
Q 447 1150 447 2328 
Q 447 3434 972 4092 
Q 1497 4750 2381 4750 
Q 2619 4750 2861 4703 
Q 3103 4656 3366 4563 
z
" transform="scale(0.015625)"/>
       </defs>
       <use xlink:href="#DejaVuSans-36"/>
      </g>
     </g>
    </g>
    <g id="xtick_5">
     <g id="line2d_9">
      <path d="M 366.551827 354.502584 
L 366.551827 23.077969 
" clip-path="url(#p8d9bdd5d2c)" style="fill: none; stroke: #e5e7eb; stroke-width: 0.8; stroke-linecap: square"/>
     </g>
     <g id="line2d_10">
      <g>
       <use xlink:href="#m06de225654" x="366.551827" y="354.502584" style="fill: #16213e; stroke: #16213e; stroke-width: 0.8"/>
      </g>
     </g>
     <g id="text_5">
      <!-- 8 -->
      <g style="fill: #16213e" transform="translate(363.052452 369.860865) scale(0.11 -0.11)">
       <defs>
        <path id="DejaVuSans-38" d="M 2034 2216 
Q 1584 2216 1326 1975 
Q 1069 1734 1069 1313 
Q 1069 891 1326 650 
Q 1584 409 2034 409 
Q 2484 409 2743 651 
Q 3003 894 3003 1313 
Q 3003 1734 2745 1975 
Q 2488 2216 2034 2216 
z
M 1403 2484 
Q 997 2584 770 2862 
Q 544 3141 544 3541 
Q 544 4100 942 4425 
Q 1341 4750 2034 4750 
Q 2731 4750 3128 4425 
Q 3525 4100 3525 3541 
Q 3525 3141 3298 2862 
Q 3072 2584 2669 2484 
Q 3125 2378 3379 2068 
Q 3634 1759 3634 1313 
Q 3634 634 3220 271 
Q 2806 -91 2034 -91 
Q 1263 -91 848 271 
Q 434 634 434 1313 
Q 434 1759 690 2068 
Q 947 2378 1403 2484 
z
M 1172 3481 
Q 1172 3119 1398 2916 
Q 1625 2713 2034 2713 
Q 2441 2713 2670 2916 
Q 2900 3119 2900 3481 
Q 2900 3844 2670 4047 
Q 2441 4250 2034 4250 
Q 1625 4250 1398 4047 
Q 1172 3844 1172 3481 
z
" transform="scale(0.015625)"/>
       </defs>
       <use xlink:href="#DejaVuSans-38"/>
      </g>
     </g>
    </g>
    <g id="xtick_6">
     <g id="line2d_11">
      <path d="M 447.478924 354.502584 
L 447.478924 23.077969 
" clip-path="url(#p8d9bdd5d2c)" style="fill: none; stroke: #e5e7eb; stroke-width: 0.8; stroke-linecap: square"/>
     </g>
     <g id="line2d_12">
      <g>
       <use xlink:href="#m06de225654" x="447.478924" y="354.502584" style="fill: #16213e; stroke: #16213e; stroke-width: 0.8"/>
      </g>
     </g>
     <g id="text_6">
      <!-- 10 -->
      <g style="fill: #16213e" transform="translate(440.480174 369.860865) scale(0.11 -0.11)">
       <defs>
        <path id="DejaVuSans-31" d="M 794 531 
L 1825 531 
L 1825 4091 
L 703 3866 
L 703 4441 
L 1819 4666 
L 2450 4666 
L 2450 531 
L 3481 531 
L 3481 0 
L 794 0 
L 794 531 
z
" transform="scale(0.015625)"/>
       </defs>
       <use xlink:href="#DejaVuSans-31"/>
       <use xlink:href="#DejaVuSans-30" x="63.623047"/>
      </g>
     </g>
    </g>
    <g id="text_7">
     <!-- experimental readiness  →  (established physics) -->
     <g style="fill: #16213e" transform="translate(141.053608 384.506803) scale(0.11 -0.11)">
      <defs>
       <path id="DejaVuSans-65" d="M 3597 1894 
L 3597 1613 
L 953 1613 
Q 991 1019 1311 708 
Q 1631 397 2203 397 
Q 2534 397 2845 478 
Q 3156 559 3463 722 
L 3463 178 
Q 3153 47 2828 -22 
Q 2503 -91 2169 -91 
Q 1331 -91 842 396 
Q 353 884 353 1716 
Q 353 2575 817 3079 
Q 1281 3584 2069 3584 
Q 2775 3584 3186 3129 
Q 3597 2675 3597 1894 
z
M 3022 2063 
Q 3016 2534 2758 2815 
Q 2500 3097 2075 3097 
Q 1594 3097 1305 2825 
Q 1016 2553 972 2059 
L 3022 2063 
z
" transform="scale(0.015625)"/>
       <path id="DejaVuSans-78" d="M 3513 3500 
L 2247 1797 
L 3578 0 
L 2900 0 
L 1881 1375 
L 863 0 
L 184 0 
L 1544 1831 
L 300 3500 
L 978 3500 
L 1906 2253 
L 2834 3500 
L 3513 3500 
z
" transform="scale(0.015625)"/>
       <path id="DejaVuSans-70" d="M 1159 525 
L 1159 -1331 
L 581 -1331 
L 581 3500 
L 1159 3500 
L 1159 2969 
Q 1341 3281 1617 3432 
Q 1894 3584 2278 3584 
Q 2916 3584 3314 3078 
Q 3713 2572 3713 1747 
Q 3713 922 3314 415 
Q 2916 -91 2278 -91 
Q 1894 -91 1617 61 
Q 1341 213 1159 525 
z
M 3116 1747 
Q 3116 2381 2855 2742 
Q 2594 3103 2138 3103 
Q 1681 3103 1420 2742 
Q 1159 2381 1159 1747 
Q 1159 1113 1420 752 
Q 1681 391 2138 391 
Q 2594 391 2855 752 
Q 3116 1113 3116 1747 
z
" transform="scale(0.015625)"/>
       <path id="DejaVuSans-72" d="M 2631 2963 
Q 2534 3019 2420 3045 
Q 2306 3072 2169 3072 
Q 1681 3072 1420 2755 
Q 1159 2438 1159 1844 
L 1159 0 
L 581 0 
L 581 3500 
L 1159 3500 
L 1159 2956 
Q 1341 3275 1631 3429 
Q 1922 3584 2338 3584 
Q 2397 3584 2469 3576 
Q 2541 3569 2628 3553 
L 2631 2963 
z
" transform="scale(0.015625)"/>
       <path id="DejaVuSans-69" d="M 603 3500 
L 1178 3500 
L 1178 0 
L 603 0 
L 603 3500 
z
M 603 4863 
L 1178 4863 
L 1178 4134 
L 603 4134 
L 603 4863 
z
" transform="scale(0.015625)"/>
       <path id="DejaVuSans-6d" d="M 3328 2828 
Q 3544 3216 3844 3400 
Q 4144 3584 4550 3584 
Q 5097 3584 5394 3201 
Q 5691 2819 5691 2113 
L 5691 0 
L 5113 0 
L 5113 2094 
Q 5113 2597 4934 2840 
Q 4756 3084 4391 3084 
Q 3944 3084 3684 2787 
Q 3425 2491 3425 1978 
L 3425 0 
L 2847 0 
L 2847 2094 
Q 2847 2600 2669 2842 
Q 2491 3084 2119 3084 
Q 1678 3084 1418 2786 
Q 1159 2488 1159 1978 
L 1159 0 
L 581 0 
L 581 3500 
L 1159 3500 
L 1159 2956 
Q 1356 3278 1631 3431 
Q 1906 3584 2284 3584 
Q 2666 3584 2933 3390 
Q 3200 3197 3328 2828 
z
" transform="scale(0.015625)"/>
       <path id="DejaVuSans-6e" d="M 3513 2113 
L 3513 0 
L 2938 0 
L 2938 2094 
Q 2938 2591 2744 2837 
Q 2550 3084 2163 3084 
Q 1697 3084 1428 2787 
Q 1159 2491 1159 1978 
L 1159 0 
L 581 0 
L 581 3500 
L 1159 3500 
L 1159 2956 
Q 1366 3272 1645 3428 
Q 1925 3584 2291 3584 
Q 2894 3584 3203 3211 
Q 3513 2838 3513 2113 
z
" transform="scale(0.015625)"/>
       <path id="DejaVuSans-74" d="M 1172 4494 
L 1172 3500 
L 2356 3500 
L 2356 3053 
L 1172 3053 
L 1172 1153 
Q 1172 725 1289 603 
Q 1406 481 1766 481 
L 2356 481 
L 2356 0 
L 1766 0 
Q 1100 0 847 248 
Q 594 497 594 1153 
L 594 3053 
L 172 3053 
L 172 3500 
L 594 3500 
L 594 4494 
L 1172 4494 
z
" transform="scale(0.015625)"/>
       <path id="DejaVuSans-61" d="M 2194 1759 
Q 1497 1759 1228 1600 
Q 959 1441 959 1056 
Q 959 750 1161 570 
Q 1363 391 1709 391 
Q 2188 391 2477 730 
Q 2766 1069 2766 1631 
L 2766 1759 
L 2194 1759 
z
M 3341 1997 
L 3341 0 
L 2766 0 
L 2766 531 
Q 2569 213 2275 61 
Q 1981 -91 1556 -91 
Q 1019 -91 701 211 
Q 384 513 384 1019 
Q 384 1609 779 1909 
Q 1175 2209 1959 2209 
L 2766 2209 
L 2766 2266 
Q 2766 2663 2505 2880 
Q 2244 3097 1772 3097 
Q 1472 3097 1187 3025 
Q 903 2953 641 2809 
L 641 3341 
Q 956 3463 1253 3523 
Q 1550 3584 1831 3584 
Q 2591 3584 2966 3190 
Q 3341 2797 3341 1997 
z
" transform="scale(0.015625)"/>
       <path id="DejaVuSans-6c" d="M 603 4863 
L 1178 4863 
L 1178 0 
L 603 0 
L 603 4863 
z
" transform="scale(0.015625)"/>
       <path id="DejaVuSans-20" transform="scale(0.015625)"/>
       <path id="DejaVuSans-64" d="M 2906 2969 
L 2906 4863 
L 3481 4863 
L 3481 0 
L 2906 0 
L 2906 525 
Q 2725 213 2448 61 
Q 2172 -91 1784 -91 
Q 1150 -91 751 415 
Q 353 922 353 1747 
Q 353 2572 751 3078 
Q 1150 3584 1784 3584 
Q 2172 3584 2448 3432 
Q 2725 3281 2906 2969 
z
M 947 1747 
Q 947 1113 1208 752 
Q 1469 391 1925 391 
Q 2381 391 2643 752 
Q 2906 1113 2906 1747 
Q 2906 2381 2643 2742 
Q 2381 3103 1925 3103 
Q 1469 3103 1208 2742 
Q 947 2381 947 1747 
z
" transform="scale(0.015625)"/>
       <path id="DejaVuSans-73" d="M 2834 3397 
L 2834 2853 
Q 2591 2978 2328 3040 
Q 2066 3103 1784 3103 
Q 1356 3103 1142 2972 
Q 928 2841 928 2578 
Q 928 2378 1081 2264 
Q 1234 2150 1697 2047 
L 1894 2003 
Q 2506 1872 2764 1633 
Q 3022 1394 3022 966 
Q 3022 478 2636 193 
Q 2250 -91 1575 -91 
Q 1294 -91 989 -36 
Q 684 19 347 128 
L 347 722 
Q 666 556 975 473 
Q 1284 391 1588 391 
Q 1994 391 2212 530 
Q 2431 669 2431 922 
Q 2431 1156 2273 1281 
Q 2116 1406 1581 1522 
L 1381 1569 
Q 847 1681 609 1914 
Q 372 2147 372 2553 
Q 372 3047 722 3315 
Q 1072 3584 1716 3584 
Q 2034 3584 2315 3537 
Q 2597 3491 2834 3397 
z
" transform="scale(0.015625)"/>
       <path id="DejaVuSans-2192" d="M 5050 2147 
L 5050 1866 
L 3822 638 
L 3447 1013 
L 4175 1741 
L 366 1741 
L 366 2272 
L 4175 2272 
L 3447 3000 
L 3822 3375 
L 5050 2147 
z
" transform="scale(0.015625)"/>
       <path id="DejaVuSans-28" d="M 1984 4856 
Q 1566 4138 1362 3434 
Q 1159 2731 1159 2009 
Q 1159 1288 1364 580 
Q 1569 -128 1984 -844 
L 1484 -844 
Q 1016 -109 783 600 
Q 550 1309 550 2009 
Q 550 2706 781 3412 
Q 1013 4119 1484 4856 
L 1984 4856 
z
" transform="scale(0.015625)"/>
       <path id="DejaVuSans-62" d="M 3116 1747 
Q 3116 2381 2855 2742 
Q 2594 3103 2138 3103 
Q 1681 3103 1420 2742 
Q 1159 2381 1159 1747 
Q 1159 1113 1420 752 
Q 1681 391 2138 391 
Q 2594 391 2855 752 
Q 3116 1113 3116 1747 
z
M 1159 2969 
Q 1341 3281 1617 3432 
Q 1894 3584 2278 3584 
Q 2916 3584 3314 3078 
Q 3713 2572 3713 1747 
Q 3713 922 3314 415 
Q 2916 -91 2278 -91 
Q 1894 -91 1617 61 
Q 1341 213 1159 525 
L 1159 0 
L 581 0 
L 581 4863 
L 1159 4863 
L 1159 2969 
z
" transform="scale(0.015625)"/>
       <path id="DejaVuSans-68" d="M 3513 2113 
L 3513 0 
L 2938 0 
L 2938 2094 
Q 2938 2591 2744 2837 
Q 2550 3084 2163 3084 
Q 1697 3084 1428 2787 
Q 1159 2491 1159 1978 
L 1159 0 
L 581 0 
L 581 4863 
L 1159 4863 
L 1159 2956 
Q 1366 3272 1645 3428 
Q 1925 3584 2291 3584 
Q 2894 3584 3203 3211 
Q 3513 2838 3513 2113 
z
" transform="scale(0.015625)"/>
       <path id="DejaVuSans-79" d="M 2059 -325 
Q 1816 -950 1584 -1140 
Q 1353 -1331 966 -1331 
L 506 -1331 
L 506 -850 
L 844 -850 
Q 1081 -850 1212 -737 
Q 1344 -625 1503 -206 
L 1606 56 
L 191 3500 
L 800 3500 
L 1894 763 
L 2988 3500 
L 3597 3500 
L 2059 -325 
z
" transform="scale(0.015625)"/>
       <path id="DejaVuSans-63" d="M 3122 3366 
L 3122 2828 
Q 2878 2963 2633 3030 
Q 2388 3097 2138 3097 
Q 1578 3097 1268 2742 
Q 959 2388 959 1747 
Q 959 1106 1268 751 
Q 1578 397 2138 397 
Q 2388 397 2633 464 
Q 2878 531 3122 666 
L 3122 134 
Q 2881 22 2623 -34 
Q 2366 -91 2075 -91 
Q 1284 -91 818 406 
Q 353 903 353 1747 
Q 353 2603 823 3093 
Q 1294 3584 2113 3584 
Q 2378 3584 2631 3529 
Q 2884 3475 3122 3366 
z
" transform="scale(0.015625)"/>
       <path id="DejaVuSans-29" d="M 513 4856 
L 1013 4856 
Q 1481 4119 1714 3412 
Q 1947 2706 1947 2009 
Q 1947 1309 1714 600 
Q 1481 -109 1013 -844 
L 513 -844 
Q 928 -128 1133 580 
Q 1338 1288 1338 2009 
Q 1338 2731 1133 3434 
Q 928 4138 513 4856 
z
" transform="scale(0.015625)"/>
      </defs>
      <use xlink:href="#DejaVuSans-65"/>
      <use xlink:href="#DejaVuSans-78" x="59.773438"/>
      <use xlink:href="#DejaVuSans-70" x="118.953125"/>
      <use xlink:href="#DejaVuSans-65" x="182.429688"/>
      <use xlink:href="#DejaVuSans-72" x="243.953125"/>
      <use xlink:href="#DejaVuSans-69" x="285.066406"/>
      <use xlink:href="#DejaVuSans-6d" x="312.849609"/>
      <use xlink:href="#DejaVuSans-65" x="410.261719"/>
      <use xlink:href="#DejaVuSans-6e" x="471.785156"/>
      <use xlink:href="#DejaVuSans-74" x="535.164062"/>
      <use xlink:href="#DejaVuSans-61" x="574.373047"/>
      <use xlink:href="#DejaVuSans-6c" x="635.652344"/>
      <use xlink:href="#DejaVuSans-20" x="663.435547"/>
      <use xlink:href="#DejaVuSans-72" x="695.222656"/>
      <use xlink:href="#DejaVuSans-65" x="734.085938"/>
      <use xlink:href="#DejaVuSans-61" x="795.609375"/>
      <use xlink:href="#DejaVuSans-64" x="856.888672"/>
      <use xlink:href="#DejaVuSans-69" x="920.365234"/>
      <use xlink:href="#DejaVuSans-6e" x="948.148438"/>
      <use xlink:href="#DejaVuSans-65" x="1011.527344"/>
      <use xlink:href="#DejaVuSans-73" x="1073.050781"/>
      <use xlink:href="#DejaVuSans-73" x="1125.150391"/>
      <use xlink:href="#DejaVuSans-20" x="1177.25"/>
      <use xlink:href="#DejaVuSans-20" x="1209.037109"/>
      <use xlink:href="#DejaVuSans-2192" x="1240.824219"/>
      <use xlink:href="#DejaVuSans-20" x="1324.613281"/>
      <use xlink:href="#DejaVuSans-20" x="1356.400391"/>
      <use xlink:href="#DejaVuSans-28" x="1388.1875"/>
      <use xlink:href="#DejaVuSans-65" x="1427.201172"/>
      <use xlink:href="#DejaVuSans-73" x="1488.724609"/>
      <use xlink:href="#DejaVuSans-74" x="1540.824219"/>
      <use xlink:href="#DejaVuSans-61" x="1580.033203"/>
      <use xlink:href="#DejaVuSans-62" x="1641.3125"/>
      <use xlink:href="#DejaVuSans-6c" x="1704.789062"/>
      <use xlink:href="#DejaVuSans-69" x="1732.572266"/>
      <use xlink:href="#DejaVuSans-73" x="1760.355469"/>
      <use xlink:href="#DejaVuSans-68" x="1812.455078"/>
      <use xlink:href="#DejaVuSans-65" x="1875.833984"/>
      <use xlink:href="#DejaVuSans-64" x="1937.357422"/>
      <use xlink:href="#DejaVuSans-20" x="2000.833984"/>
      <use xlink:href="#DejaVuSans-70" x="2032.621094"/>
      <use xlink:href="#DejaVuSans-68" x="2096.097656"/>
      <use xlink:href="#DejaVuSans-79" x="2159.476562"/>
      <use xlink:href="#DejaVuSans-73" x="2218.65625"/>
      <use xlink:href="#DejaVuSans-69" x="2270.755859"/>
      <use xlink:href="#DejaVuSans-63" x="2298.539062"/>
      <use xlink:href="#DejaVuSans-73" x="2353.519531"/>
      <use xlink:href="#DejaVuSans-29" x="2405.619141"/>
     </g>
    </g>
   </g>
   <g id="matplotlib.axis_2">
    <g id="ytick_1">
     <g id="line2d_13">
      <path d="M 42.843438 354.502584 
L 508.174247 354.502584 
" clip-path="url(#p8d9bdd5d2c)" style="fill: none; stroke: #e5e7eb; stroke-width: 0.8; stroke-linecap: square"/>
     </g>
     <g id="line2d_14">
      <defs>
       <path id="mc3e80993dd" d="M 0 0 
L -3.5 0 
" style="stroke: #16213e; stroke-width: 0.8"/>
      </defs>
      <g>
       <use xlink:href="#mc3e80993dd" x="42.843438" y="354.502584" style="fill: #16213e; stroke: #16213e; stroke-width: 0.8"/>
      </g>
     </g>
     <g id="text_8">
      <!-- 4 -->
      <g style="fill: #16213e" transform="translate(28.844688 358.681725) scale(0.11 -0.11)">
       <use xlink:href="#DejaVuSans-34"/>
      </g>
     </g>
    </g>
    <g id="ytick_2">
     <g id="line2d_15">
      <path d="M 42.843438 307.156211 
L 508.174247 307.156211 
" clip-path="url(#p8d9bdd5d2c)" style="fill: none; stroke: #e5e7eb; stroke-width: 0.8; stroke-linecap: square"/>
     </g>
     <g id="line2d_16">
      <g>
       <use xlink:href="#mc3e80993dd" x="42.843438" y="307.156211" style="fill: #16213e; stroke: #16213e; stroke-width: 0.8"/>
      </g>
     </g>
     <g id="text_9">
      <!-- 5 -->
      <g style="fill: #16213e" transform="translate(28.844688 311.335351) scale(0.11 -0.11)">
       <defs>
        <path id="DejaVuSans-35" d="M 691 4666 
L 3169 4666 
L 3169 4134 
L 1269 4134 
L 1269 2991 
Q 1406 3038 1543 3061 
Q 1681 3084 1819 3084 
Q 2600 3084 3056 2656 
Q 3513 2228 3513 1497 
Q 3513 744 3044 326 
Q 2575 -91 1722 -91 
Q 1428 -91 1123 -41 
Q 819 9 494 109 
L 494 744 
Q 775 591 1075 516 
Q 1375 441 1709 441 
Q 2250 441 2565 725 
Q 2881 1009 2881 1497 
Q 2881 1984 2565 2268 
Q 2250 2553 1709 2553 
Q 1456 2553 1204 2497 
Q 953 2441 691 2322 
L 691 4666 
z
" transform="scale(0.015625)"/>
       </defs>
       <use xlink:href="#DejaVuSans-35"/>
      </g>
     </g>
    </g>
    <g id="ytick_3">
     <g id="line2d_17">
      <path d="M 42.843438 259.809837 
L 508.174247 259.809837 
" clip-path="url(#p8d9bdd5d2c)" style="fill: none; stroke: #e5e7eb; stroke-width: 0.8; stroke-linecap: square"/>
     </g>
     <g id="line2d_18">
      <g>
       <use xlink:href="#mc3e80993dd" x="42.843438" y="259.809837" style="fill: #16213e; stroke: #16213e; stroke-width: 0.8"/>
      </g>
     </g>
     <g id="text_10">
      <!-- 6 -->
      <g style="fill: #16213e" transform="translate(28.844688 263.988978) scale(0.11 -0.11)">
       <use xlink:href="#DejaVuSans-36"/>
      </g>
     </g>
    </g>
    <g id="ytick_4">
     <g id="line2d_19">
      <path d="M 42.843438 212.463463 
L 508.174247 212.463463 
" clip-path="url(#p8d9bdd5d2c)" style="fill: none; stroke: #e5e7eb; stroke-width: 0.8; stroke-linecap: square"/>
     </g>
     <g id="line2d_20">
      <g>
       <use xlink:href="#mc3e80993dd" x="42.843438" y="212.463463" style="fill: #16213e; stroke: #16213e; stroke-width: 0.8"/>
      </g>
     </g>
     <g id="text_11">
      <!-- 7 -->
      <g style="fill: #16213e" transform="translate(28.844688 216.642604) scale(0.11 -0.11)">
       <defs>
        <path id="DejaVuSans-37" d="M 525 4666 
L 3525 4666 
L 3525 4397 
L 1831 0 
L 1172 0 
L 2766 4134 
L 525 4134 
L 525 4666 
z
" transform="scale(0.015625)"/>
       </defs>
       <use xlink:href="#DejaVuSans-37"/>
      </g>
     </g>
    </g>
    <g id="ytick_5">
     <g id="line2d_21">
      <path d="M 42.843438 165.11709 
L 508.174247 165.11709 
" clip-path="url(#p8d9bdd5d2c)" style="fill: none; stroke: #e5e7eb; stroke-width: 0.8; stroke-linecap: square"/>
     </g>
     <g id="line2d_22">
      <g>
       <use xlink:href="#mc3e80993dd" x="42.843438" y="165.11709" style="fill: #16213e; stroke: #16213e; stroke-width: 0.8"/>
      </g>
     </g>
     <g id="text_12">
      <!-- 8 -->
      <g style="fill: #16213e" transform="translate(28.844688 169.29623) scale(0.11 -0.11)">
       <use xlink:href="#DejaVuSans-38"/>
      </g>
     </g>
    </g>
    <g id="ytick_6">
     <g id="line2d_23">
      <path d="M 42.843438 117.770716 
L 508.174247 117.770716 
" clip-path="url(#p8d9bdd5d2c)" style="fill: none; stroke: #e5e7eb; stroke-width: 0.8; stroke-linecap: square"/>
     </g>
     <g id="line2d_24">
      <g>
       <use xlink:href="#mc3e80993dd" x="42.843438" y="117.770716" style="fill: #16213e; stroke: #16213e; stroke-width: 0.8"/>
      </g>
     </g>
     <g id="text_13">
      <!-- 9 -->
      <g style="fill: #16213e" transform="translate(28.844688 121.949857) scale(0.11 -0.11)">
       <defs>
        <path id="DejaVuSans-39" d="M 703 97 
L 703 672 
Q 941 559 1184 500 
Q 1428 441 1663 441 
Q 2288 441 2617 861 
Q 2947 1281 2994 2138 
Q 2813 1869 2534 1725 
Q 2256 1581 1919 1581 
Q 1219 1581 811 2004 
Q 403 2428 403 3163 
Q 403 3881 828 4315 
Q 1253 4750 1959 4750 
Q 2769 4750 3195 4129 
Q 3622 3509 3622 2328 
Q 3622 1225 3098 567 
Q 2575 -91 1691 -91 
Q 1453 -91 1209 -44 
Q 966 3 703 97 
z
M 1959 2075 
Q 2384 2075 2632 2365 
Q 2881 2656 2881 3163 
Q 2881 3666 2632 3958 
Q 2384 4250 1959 4250 
Q 1534 4250 1286 3958 
Q 1038 3666 1038 3163 
Q 1038 2656 1286 2365 
Q 1534 2075 1959 2075 
z
" transform="scale(0.015625)"/>
       </defs>
       <use xlink:href="#DejaVuSans-39"/>
      </g>
     </g>
    </g>
    <g id="ytick_7">
     <g id="line2d_25">
      <path d="M 42.843438 70.424342 
L 508.174247 70.424342 
" clip-path="url(#p8d9bdd5d2c)" style="fill: none; stroke: #e5e7eb; stroke-width: 0.8; stroke-linecap: square"/>
     </g>
     <g id="line2d_26">
      <g>
       <use xlink:href="#mc3e80993dd" x="42.843438" y="70.424342" style="fill: #16213e; stroke: #16213e; stroke-width: 0.8"/>
      </g>
     </g>
     <g id="text_14">
      <!-- 10 -->
      <g style="fill: #16213e" transform="translate(21.845938 74.603483) scale(0.11 -0.11)">
       <use xlink:href="#DejaVuSans-31"/>
       <use xlink:href="#DejaVuSans-30" x="63.623047"/>
      </g>
     </g>
    </g>
    <g id="ytick_8">
     <g id="line2d_27">
      <path d="M 42.843438 23.077969 
L 508.174247 23.077969 
" clip-path="url(#p8d9bdd5d2c)" style="fill: none; stroke: #e5e7eb; stroke-width: 0.8; stroke-linecap: square"/>
     </g>
     <g id="line2d_28">
      <g>
       <use xlink:href="#mc3e80993dd" x="42.843438" y="23.077969" style="fill: #16213e; stroke: #16213e; stroke-width: 0.8"/>
      </g>
     </g>
     <g id="text_15">
      <!-- 11 -->
      <g style="fill: #16213e" transform="translate(21.845938 27.257109) scale(0.11 -0.11)">
       <use xlink:href="#DejaVuSans-31"/>
       <use xlink:href="#DejaVuSans-31" x="63.623047"/>
      </g>
     </g>
    </g>
    <g id="text_16">
     <!-- centrality to the theory  → -->
     <g style="fill: #16213e" transform="translate(15.558281 260.743167) rotate(-90) scale(0.11 -0.11)">
      <defs>
       <path id="DejaVuSans-6f" d="M 1959 3097 
Q 1497 3097 1228 2736 
Q 959 2375 959 1747 
Q 959 1119 1226 758 
Q 1494 397 1959 397 
Q 2419 397 2687 759 
Q 2956 1122 2956 1747 
Q 2956 2369 2687 2733 
Q 2419 3097 1959 3097 
z
M 1959 3584 
Q 2709 3584 3137 3096 
Q 3566 2609 3566 1747 
Q 3566 888 3137 398 
Q 2709 -91 1959 -91 
Q 1206 -91 779 398 
Q 353 888 353 1747 
Q 353 2609 779 3096 
Q 1206 3584 1959 3584 
z
" transform="scale(0.015625)"/>
      </defs>
      <use xlink:href="#DejaVuSans-63"/>
      <use xlink:href="#DejaVuSans-65" x="54.980469"/>
      <use xlink:href="#DejaVuSans-6e" x="116.503906"/>
      <use xlink:href="#DejaVuSans-74" x="179.882812"/>
      <use xlink:href="#DejaVuSans-72" x="219.091797"/>
      <use xlink:href="#DejaVuSans-61" x="260.205078"/>
      <use xlink:href="#DejaVuSans-6c" x="321.484375"/>
      <use xlink:href="#DejaVuSans-69" x="349.267578"/>
      <use xlink:href="#DejaVuSans-74" x="377.050781"/>
      <use xlink:href="#DejaVuSans-79" x="416.259766"/>
      <use xlink:href="#DejaVuSans-20" x="475.439453"/>
      <use xlink:href="#DejaVuSans-74" x="507.226562"/>
      <use xlink:href="#DejaVuSans-6f" x="546.435547"/>
      <use xlink:href="#DejaVuSans-20" x="607.617188"/>
      <use xlink:href="#DejaVuSans-74" x="639.404297"/>
      <use xlink:href="#DejaVuSans-68" x="678.613281"/>
      <use xlink:href="#DejaVuSans-65" x="741.992188"/>
      <use xlink:href="#DejaVuSans-20" x="803.515625"/>
      <use xlink:href="#DejaVuSans-74" x="835.302734"/>
      <use xlink:href="#DejaVuSans-68" x="874.511719"/>
      <use xlink:href="#DejaVuSans-65" x="937.890625"/>
      <use xlink:href="#DejaVuSans-6f" x="999.414062"/>
      <use xlink:href="#DejaVuSans-72" x="1060.595703"/>
      <use xlink:href="#DejaVuSans-79" x="1101.708984"/>
      <use xlink:href="#DejaVuSans-20" x="1160.888672"/>
      <use xlink:href="#DejaVuSans-20" x="1192.675781"/>
      <use xlink:href="#DejaVuSans-2192" x="1224.462891"/>
     </g>
    </g>
   </g>
   <g id="patch_5">
    <path d="M 42.843438 354.502584 
L 42.843438 23.077969 
" style="fill: none; stroke: #16213e; stroke-width: 0.8; stroke-linejoin: miter; stroke-linecap: square"/>
   </g>
   <g id="patch_6">
    <path d="M 42.843438 354.502584 
L 508.174247 354.502584 
" style="fill: none; stroke: #16213e; stroke-width: 0.8; stroke-linejoin: miter; stroke-linecap: square"/>
   </g>
   <g id="text_17">
    <!-- unconfirmed / contested -->
    <g style="fill: #dc2626" transform="translate(54.982502 342.665991) scale(0.08 -0.08)">
     <defs>
      <path id="DejaVuSans-75" d="M 544 1381 
L 544 3500 
L 1119 3500 
L 1119 1403 
Q 1119 906 1312 657 
Q 1506 409 1894 409 
Q 2359 409 2629 706 
Q 2900 1003 2900 1516 
L 2900 3500 
L 3475 3500 
L 3475 0 
L 2900 0 
L 2900 538 
Q 2691 219 2414 64 
Q 2138 -91 1772 -91 
Q 1169 -91 856 284 
Q 544 659 544 1381 
z
M 1991 3584 
L 1991 3584 
z
" transform="scale(0.015625)"/>
      <path id="DejaVuSans-66" d="M 2375 4863 
L 2375 4384 
L 1825 4384 
Q 1516 4384 1395 4259 
Q 1275 4134 1275 3809 
L 1275 3500 
L 2222 3500 
L 2222 3053 
L 1275 3053 
L 1275 0 
L 697 0 
L 697 3053 
L 147 3053 
L 147 3500 
L 697 3500 
L 697 3744 
Q 697 4328 969 4595 
Q 1241 4863 1831 4863 
L 2375 4863 
z
" transform="scale(0.015625)"/>
      <path id="DejaVuSans-2f" d="M 1625 4666 
L 2156 4666 
L 531 -594 
L 0 -594 
L 1625 4666 
z
" transform="scale(0.015625)"/>
     </defs>
     <use xlink:href="#DejaVuSans-75"/>
     <use xlink:href="#DejaVuSans-6e" x="63.378906"/>
     <use xlink:href="#DejaVuSans-63" x="126.757812"/>
     <use xlink:href="#DejaVuSans-6f" x="181.738281"/>
     <use xlink:href="#DejaVuSans-6e" x="242.919922"/>
     <use xlink:href="#DejaVuSans-66" x="306.298828"/>
     <use xlink:href="#DejaVuSans-69" x="341.503906"/>
     <use xlink:href="#DejaVuSans-72" x="369.287109"/>
     <use xlink:href="#DejaVuSans-6d" x="408.650391"/>
     <use xlink:href="#DejaVuSans-65" x="506.0625"/>
     <use xlink:href="#DejaVuSans-64" x="567.585938"/>
     <use xlink:href="#DejaVuSans-20" x="631.0625"/>
     <use xlink:href="#DejaVuSans-2f" x="662.849609"/>
     <use xlink:href="#DejaVuSans-20" x="696.541016"/>
     <use xlink:href="#DejaVuSans-63" x="728.328125"/>
     <use xlink:href="#DejaVuSans-6f" x="783.308594"/>
     <use xlink:href="#DejaVuSans-6e" x="844.490234"/>
     <use xlink:href="#DejaVuSans-74" x="907.869141"/>
     <use xlink:href="#DejaVuSans-65" x="947.078125"/>
     <use xlink:href="#DejaVuSans-73" x="1008.601562"/>
     <use xlink:href="#DejaVuSans-74" x="1060.701172"/>
     <use xlink:href="#DejaVuSans-65" x="1099.910156"/>
     <use xlink:href="#DejaVuSans-64" x="1161.433594"/>
    </g>
   </g>
   <g id="text_18">
    <!-- routine in any nuclear lab -->
    <g style="fill: #16a34a" transform="translate(394.876311 342.665991) scale(0.08 -0.08)">
     <use xlink:href="#DejaVuSans-72"/>
     <use xlink:href="#DejaVuSans-6f" x="38.863281"/>
     <use xlink:href="#DejaVuSans-75" x="100.044922"/>
     <use xlink:href="#DejaVuSans-74" x="163.423828"/>
     <use xlink:href="#DejaVuSans-69" x="202.632812"/>
     <use xlink:href="#DejaVuSans-6e" x="230.416016"/>
     <use xlink:href="#DejaVuSans-65" x="293.794922"/>
     <use xlink:href="#DejaVuSans-20" x="355.318359"/>
     <use xlink:href="#DejaVuSans-69" x="387.105469"/>
     <use xlink:href="#DejaVuSans-6e" x="414.888672"/>
     <use xlink:href="#DejaVuSans-20" x="478.267578"/>
     <use xlink:href="#DejaVuSans-61" x="510.054688"/>
     <use xlink:href="#DejaVuSans-6e" x="571.333984"/>
     <use xlink:href="#DejaVuSans-79" x="634.712891"/>
     <use xlink:href="#DejaVuSans-20" x="693.892578"/>
     <use xlink:href="#DejaVuSans-6e" x="725.679688"/>
     <use xlink:href="#DejaVuSans-75" x="789.058594"/>
     <use xlink:href="#DejaVuSans-63" x="852.4375"/>
     <use xlink:href="#DejaVuSans-6c" x="907.417969"/>
     <use xlink:href="#DejaVuSans-65" x="935.201172"/>
     <use xlink:href="#DejaVuSans-61" x="996.724609"/>
     <use xlink:href="#DejaVuSans-72" x="1058.003906"/>
     <use xlink:href="#DejaVuSans-20" x="1099.117188"/>
     <use xlink:href="#DejaVuSans-6c" x="1130.904297"/>
     <use xlink:href="#DejaVuSans-61" x="1158.6875"/>
     <use xlink:href="#DejaVuSans-62" x="1219.966797"/>
    </g>
   </g>
   <g id="text_19">
    <!-- Where the theory lives or dies -->
    <g style="fill: #16213e" transform="translate(164.381186 17.077969) scale(0.13 -0.13)">
     <defs>
      <path id="DejaVuSans-Bold-57" d="M 191 4666 
L 1344 4666 
L 2150 1275 
L 2950 4666 
L 4109 4666 
L 4909 1275 
L 5716 4666 
L 6859 4666 
L 5759 0 
L 4372 0 
L 3525 3547 
L 2688 0 
L 1300 0 
L 191 4666 
z
" transform="scale(0.015625)"/>
      <path id="DejaVuSans-Bold-68" d="M 4056 2131 
L 4056 0 
L 2931 0 
L 2931 347 
L 2931 1625 
Q 2931 2084 2911 2256 
Q 2891 2428 2841 2509 
Q 2775 2619 2662 2680 
Q 2550 2741 2406 2741 
Q 2056 2741 1856 2470 
Q 1656 2200 1656 1722 
L 1656 0 
L 538 0 
L 538 4863 
L 1656 4863 
L 1656 2988 
Q 1909 3294 2193 3439 
Q 2478 3584 2822 3584 
Q 3428 3584 3742 3212 
Q 4056 2841 4056 2131 
z
" transform="scale(0.015625)"/>
      <path id="DejaVuSans-Bold-65" d="M 4031 1759 
L 4031 1441 
L 1416 1441 
Q 1456 1047 1700 850 
Q 1944 653 2381 653 
Q 2734 653 3104 758 
Q 3475 863 3866 1075 
L 3866 213 
Q 3469 63 3072 -14 
Q 2675 -91 2278 -91 
Q 1328 -91 801 392 
Q 275 875 275 1747 
Q 275 2603 792 3093 
Q 1309 3584 2216 3584 
Q 3041 3584 3536 3087 
Q 4031 2591 4031 1759 
z
M 2881 2131 
Q 2881 2450 2695 2645 
Q 2509 2841 2209 2841 
Q 1884 2841 1681 2658 
Q 1478 2475 1428 2131 
L 2881 2131 
z
" transform="scale(0.015625)"/>
      <path id="DejaVuSans-Bold-72" d="M 3138 2547 
Q 2991 2616 2845 2648 
Q 2700 2681 2553 2681 
Q 2122 2681 1889 2404 
Q 1656 2128 1656 1613 
L 1656 0 
L 538 0 
L 538 3500 
L 1656 3500 
L 1656 2925 
Q 1872 3269 2151 3426 
Q 2431 3584 2822 3584 
Q 2878 3584 2943 3579 
Q 3009 3575 3134 3559 
L 3138 2547 
z
" transform="scale(0.015625)"/>
      <path id="DejaVuSans-Bold-20" transform="scale(0.015625)"/>
      <path id="DejaVuSans-Bold-74" d="M 1759 4494 
L 1759 3500 
L 2913 3500 
L 2913 2700 
L 1759 2700 
L 1759 1216 
Q 1759 972 1856 886 
Q 1953 800 2241 800 
L 2816 800 
L 2816 0 
L 1856 0 
Q 1194 0 917 276 
Q 641 553 641 1216 
L 641 2700 
L 84 2700 
L 84 3500 
L 641 3500 
L 641 4494 
L 1759 4494 
z
" transform="scale(0.015625)"/>
      <path id="DejaVuSans-Bold-6f" d="M 2203 2784 
Q 1831 2784 1636 2517 
Q 1441 2250 1441 1747 
Q 1441 1244 1636 976 
Q 1831 709 2203 709 
Q 2569 709 2762 976 
Q 2956 1244 2956 1747 
Q 2956 2250 2762 2517 
Q 2569 2784 2203 2784 
z
M 2203 3584 
Q 3106 3584 3614 3096 
Q 4122 2609 4122 1747 
Q 4122 884 3614 396 
Q 3106 -91 2203 -91 
Q 1297 -91 786 396 
Q 275 884 275 1747 
Q 275 2609 786 3096 
Q 1297 3584 2203 3584 
z
" transform="scale(0.015625)"/>
      <path id="DejaVuSans-Bold-79" d="M 78 3500 
L 1197 3500 
L 2138 1125 
L 2938 3500 
L 4056 3500 
L 2584 -331 
Q 2363 -916 2067 -1148 
Q 1772 -1381 1288 -1381 
L 641 -1381 
L 641 -647 
L 991 -647 
Q 1275 -647 1404 -556 
Q 1534 -466 1606 -231 
L 1638 -134 
L 78 3500 
z
" transform="scale(0.015625)"/>
      <path id="DejaVuSans-Bold-6c" d="M 538 4863 
L 1656 4863 
L 1656 0 
L 538 0 
L 538 4863 
z
" transform="scale(0.015625)"/>
      <path id="DejaVuSans-Bold-69" d="M 538 3500 
L 1656 3500 
L 1656 0 
L 538 0 
L 538 3500 
z
M 538 4863 
L 1656 4863 
L 1656 3950 
L 538 3950 
L 538 4863 
z
" transform="scale(0.015625)"/>
      <path id="DejaVuSans-Bold-76" d="M 97 3500 
L 1216 3500 
L 2088 1081 
L 2956 3500 
L 4078 3500 
L 2700 0 
L 1472 0 
L 97 3500 
z
" transform="scale(0.015625)"/>
      <path id="DejaVuSans-Bold-73" d="M 3272 3391 
L 3272 2541 
Q 2913 2691 2578 2766 
Q 2244 2841 1947 2841 
Q 1628 2841 1473 2761 
Q 1319 2681 1319 2516 
Q 1319 2381 1436 2309 
Q 1553 2238 1856 2203 
L 2053 2175 
Q 2913 2066 3209 1816 
Q 3506 1566 3506 1031 
Q 3506 472 3093 190 
Q 2681 -91 1863 -91 
Q 1516 -91 1145 -36 
Q 775 19 384 128 
L 384 978 
Q 719 816 1070 734 
Q 1422 653 1784 653 
Q 2113 653 2278 743 
Q 2444 834 2444 1013 
Q 2444 1163 2330 1236 
Q 2216 1309 1875 1350 
L 1678 1375 
Q 931 1469 631 1722 
Q 331 1975 331 2491 
Q 331 3047 712 3315 
Q 1094 3584 1881 3584 
Q 2191 3584 2531 3537 
Q 2872 3491 3272 3391 
z
" transform="scale(0.015625)"/>
      <path id="DejaVuSans-Bold-64" d="M 2919 2988 
L 2919 4863 
L 4044 4863 
L 4044 0 
L 2919 0 
L 2919 506 
Q 2688 197 2409 53 
Q 2131 -91 1766 -91 
Q 1119 -91 703 423 
Q 288 938 288 1747 
Q 288 2556 703 3070 
Q 1119 3584 1766 3584 
Q 2128 3584 2408 3439 
Q 2688 3294 2919 2988 
z
M 2181 722 
Q 2541 722 2730 984 
Q 2919 1247 2919 1747 
Q 2919 2247 2730 2509 
Q 2541 2772 2181 2772 
Q 1825 2772 1636 2509 
Q 1447 2247 1447 1747 
Q 1447 1247 1636 984 
Q 1825 722 2181 722 
z
" transform="scale(0.015625)"/>
     </defs>
     <use xlink:href="#DejaVuSans-Bold-57"/>
     <use xlink:href="#DejaVuSans-Bold-68" x="110.302734"/>
     <use xlink:href="#DejaVuSans-Bold-65" x="181.494141"/>
     <use xlink:href="#DejaVuSans-Bold-72" x="249.316406"/>
     <use xlink:href="#DejaVuSans-Bold-65" x="298.632812"/>
     <use xlink:href="#DejaVuSans-Bold-20" x="366.455078"/>
     <use xlink:href="#DejaVuSans-Bold-74" x="401.269531"/>
     <use xlink:href="#DejaVuSans-Bold-68" x="449.072266"/>
     <use xlink:href="#DejaVuSans-Bold-65" x="520.263672"/>
     <use xlink:href="#DejaVuSans-Bold-20" x="588.085938"/>
     <use xlink:href="#DejaVuSans-Bold-74" x="622.900391"/>
     <use xlink:href="#DejaVuSans-Bold-68" x="670.703125"/>
     <use xlink:href="#DejaVuSans-Bold-65" x="741.894531"/>
     <use xlink:href="#DejaVuSans-Bold-6f" x="809.716797"/>
     <use xlink:href="#DejaVuSans-Bold-72" x="878.417969"/>
     <use xlink:href="#DejaVuSans-Bold-79" x="927.734375"/>
     <use xlink:href="#DejaVuSans-Bold-20" x="992.919922"/>
     <use xlink:href="#DejaVuSans-Bold-6c" x="1027.734375"/>
     <use xlink:href="#DejaVuSans-Bold-69" x="1062.011719"/>
     <use xlink:href="#DejaVuSans-Bold-76" x="1096.289062"/>
     <use xlink:href="#DejaVuSans-Bold-65" x="1161.474609"/>
     <use xlink:href="#DejaVuSans-Bold-73" x="1229.296875"/>
     <use xlink:href="#DejaVuSans-Bold-20" x="1288.818359"/>
     <use xlink:href="#DejaVuSans-Bold-6f" x="1323.632812"/>
     <use xlink:href="#DejaVuSans-Bold-72" x="1392.333984"/>
     <use xlink:href="#DejaVuSans-Bold-20" x="1441.650391"/>
     <use xlink:href="#DejaVuSans-Bold-64" x="1476.464844"/>
     <use xlink:href="#DejaVuSans-Bold-69" x="1548.046875"/>
     <use xlink:href="#DejaVuSans-Bold-65" x="1582.324219"/>
     <use xlink:href="#DejaVuSans-Bold-73" x="1650.146484"/>
    </g>
   </g>
   <g id="PathCollection_1">
    <path d="M 123.770535 103.336541 
C 128.73203 103.336541 133.490984 101.365318 136.999291 97.857011 
C 140.507599 94.348704 142.478822 89.58975 142.478822 84.628254 
C 142.478822 79.666759 140.507599 74.907805 136.999291 71.399498 
C 133.490984 67.891191 128.73203 65.919968 123.770535 65.919968 
C 118.809039 65.919968 114.050085 67.891191 110.541778 71.399498 
C 107.033471 74.907805 105.062248 79.666759 105.062248 84.628254 
C 105.062248 89.58975 107.033471 94.348704 110.541778 97.857011 
C 114.050085 101.365318 118.809039 103.336541 123.770535 103.336541 
L 123.770535 103.336541 
z
" clip-path="url(#p8d9bdd5d2c)" style="fill: none; stroke-dasharray: 5.92,2.56; stroke-dashoffset: 0; stroke: #dc2626; stroke-width: 1.6"/>
   </g>
   <g id="PathCollection_2">
    <defs>
     <path id="m6b986062c2" d="M 0 7.582875 
C 2.011002 7.582875 3.939909 6.783896 5.361903 5.361903 
C 6.783896 3.939909 7.582875 2.011002 7.582875 0 
C 7.582875 -2.011002 6.783896 -3.939909 5.361903 -5.361903 
C 3.939909 -6.783896 2.011002 -7.582875 0 -7.582875 
C -2.011002 -7.582875 -3.939909 -6.783896 -5.361903 -5.361903 
C -6.783896 -3.939909 -7.582875 -2.011002 -7.582875 0 
C -7.582875 2.011002 -6.783896 3.939909 -5.361903 5.361903 
C -3.939909 6.783896 -2.011002 7.582875 0 7.582875 
z
" style="stroke: #ffffff; stroke-opacity: 0.85; stroke-width: 1.5"/>
    </defs>
    <g clip-path="url(#p8d9bdd5d2c)">
     <use xlink:href="#m6b986062c2" x="435.339859" y="283.483024" style="fill: #16a34a; fill-opacity: 0.85; stroke: #ffffff; stroke-opacity: 0.85; stroke-width: 1.5"/>
    </g>
   </g>
   <g id="PathCollection_3">
    <g clip-path="url(#p8d9bdd5d2c)">
     <use xlink:href="#m6b986062c2" x="407.015375" y="221.932738" style="fill: #16a34a; fill-opacity: 0.85; stroke: #ffffff; stroke-opacity: 0.85; stroke-width: 1.5"/>
    </g>
   </g>
   <g id="PathCollection_4">
    <g clip-path="url(#p8d9bdd5d2c)">
     <use xlink:href="#m6b986062c2" x="439.386214" y="165.11709" style="fill: #16a34a; fill-opacity: 0.85; stroke: #ffffff; stroke-opacity: 0.85; stroke-width: 1.5"/>
    </g>
   </g>
   <g id="PathCollection_5">
    <g clip-path="url(#p8d9bdd5d2c)">
     <use xlink:href="#m6b986062c2" x="407.015375" y="297.686936" style="fill: #16a34a; fill-opacity: 0.85; stroke: #ffffff; stroke-opacity: 0.85; stroke-width: 1.5"/>
    </g>
   </g>
   <g id="PathCollection_6">
    <defs>
     <path id="m3061c18f87" d="M 0 7.582875 
C 2.011002 7.582875 3.939909 6.783896 5.361903 5.361903 
C 6.783896 3.939909 7.582875 2.011002 7.582875 0 
C 7.582875 -2.011002 6.783896 -3.939909 5.361903 -5.361903 
C 3.939909 -6.783896 2.011002 -7.582875 0 -7.582875 
C -2.011002 -7.582875 -3.939909 -6.783896 -5.361903 -5.361903 
C -6.783896 -3.939909 -7.582875 -2.011002 -7.582875 0 
C -7.582875 2.011002 -6.783896 3.939909 -5.361903 5.361903 
C -3.939909 6.783896 -2.011002 7.582875 0 7.582875 
z
" style="stroke: #ffffff; stroke-opacity: 0.85; stroke-width: 1.5"/>
    </defs>
    <g clip-path="url(#p8d9bdd5d2c)">
     <use xlink:href="#m3061c18f87" x="317.995568" y="212.463463" style="fill: #2563eb; fill-opacity: 0.85; stroke: #ffffff; stroke-opacity: 0.85; stroke-width: 1.5"/>
    </g>
   </g>
   <g id="PathCollection_7">
    <g clip-path="url(#p8d9bdd5d2c)">
     <use xlink:href="#m3061c18f87" x="269.43931" y="259.809837" style="fill: #2563eb; fill-opacity: 0.85; stroke: #ffffff; stroke-opacity: 0.85; stroke-width: 1.5"/>
    </g>
   </g>
   <g id="PathCollection_8">
    <defs>
     <path id="m6200033fa4" d="M 0 7.582875 
C 2.011002 7.582875 3.939909 6.783896 5.361903 5.361903 
C 6.783896 3.939909 7.582875 2.011002 7.582875 0 
C 7.582875 -2.011002 6.783896 -3.939909 5.361903 -5.361903 
C 3.939909 -6.783896 2.011002 -7.582875 0 -7.582875 
C -2.011002 -7.582875 -3.939909 -6.783896 -5.361903 -5.361903 
C -6.783896 -3.939909 -7.582875 -2.011002 -7.582875 0 
C -7.582875 2.011002 -6.783896 3.939909 -5.361903 5.361903 
C -3.939909 6.783896 -2.011002 7.582875 0 7.582875 
z
" style="stroke: #ffffff; stroke-opacity: 0.85; stroke-width: 1.5"/>
    </defs>
    <g clip-path="url(#p8d9bdd5d2c)">
     <use xlink:href="#m6200033fa4" x="228.975761" y="297.686936" style="fill: #7c3aed; fill-opacity: 0.85; stroke: #ffffff; stroke-opacity: 0.85; stroke-width: 1.5"/>
    </g>
   </g>
   <g id="PathCollection_9">
    <defs>
     <path id="mc7f222bc8c" d="M 0 11.401754 
C 3.023781 11.401754 5.924122 10.200393 8.062258 8.062258 
C 10.200393 5.924122 11.401754 3.023781 11.401754 0 
C 11.401754 -3.023781 10.200393 -5.924122 8.062258 -8.062258 
C 5.924122 -10.200393 3.023781 -11.401754 0 -11.401754 
C -3.023781 -11.401754 -5.924122 -10.200393 -8.062258 -8.062258 
C -10.200393 -5.924122 -11.401754 -3.023781 -11.401754 0 
C -11.401754 3.023781 -10.200393 5.924122 -8.062258 8.062258 
C -5.924122 10.200393 -3.023781 11.401754 0 11.401754 
z
" style="stroke: #ffffff; stroke-opacity: 0.85; stroke-width: 1.5"/>
    </defs>
    <g clip-path="url(#p8d9bdd5d2c)">
     <use xlink:href="#mc7f222bc8c" x="123.770535" y="84.628254" style="fill: #dc2626; fill-opacity: 0.85; stroke: #ffffff; stroke-opacity: 0.85; stroke-width: 1.5"/>
    </g>
   </g>
   <g id="text_20">
    <!-- Poisson source: power / clock / entropy -->
    <g style="fill: #16a34a" transform="translate(441.409392 271.64643) scale(0.084 -0.084)">
     <defs>
      <path id="DejaVuSans-50" d="M 1259 4147 
L 1259 2394 
L 2053 2394 
Q 2494 2394 2734 2622 
Q 2975 2850 2975 3272 
Q 2975 3691 2734 3919 
Q 2494 4147 2053 4147 
L 1259 4147 
z
M 628 4666 
L 2053 4666 
Q 2838 4666 3239 4311 
Q 3641 3956 3641 3272 
Q 3641 2581 3239 2228 
Q 2838 1875 2053 1875 
L 1259 1875 
L 1259 0 
L 628 0 
L 628 4666 
z
" transform="scale(0.015625)"/>
      <path id="DejaVuSans-3a" d="M 750 794 
L 1409 794 
L 1409 0 
L 750 0 
L 750 794 
z
M 750 3309 
L 1409 3309 
L 1409 2516 
L 750 2516 
L 750 3309 
z
" transform="scale(0.015625)"/>
      <path id="DejaVuSans-77" d="M 269 3500 
L 844 3500 
L 1563 769 
L 2278 3500 
L 2956 3500 
L 3675 769 
L 4391 3500 
L 4966 3500 
L 4050 0 
L 3372 0 
L 2619 2869 
L 1863 0 
L 1184 0 
L 269 3500 
z
" transform="scale(0.015625)"/>
      <path id="DejaVuSans-6b" d="M 581 4863 
L 1159 4863 
L 1159 1991 
L 2875 3500 
L 3609 3500 
L 1753 1863 
L 3688 0 
L 2938 0 
L 1159 1709 
L 1159 0 
L 581 0 
L 581 4863 
z
" transform="scale(0.015625)"/>
     </defs>
     <use xlink:href="#DejaVuSans-50"/>
     <use xlink:href="#DejaVuSans-6f" x="56.677734"/>
     <use xlink:href="#DejaVuSans-69" x="117.859375"/>
     <use xlink:href="#DejaVuSans-73" x="145.642578"/>
     <use xlink:href="#DejaVuSans-73" x="197.742188"/>
     <use xlink:href="#DejaVuSans-6f" x="249.841797"/>
     <use xlink:href="#DejaVuSans-6e" x="311.023438"/>
     <use xlink:href="#DejaVuSans-20" x="374.402344"/>
     <use xlink:href="#DejaVuSans-73" x="406.189453"/>
     <use xlink:href="#DejaVuSans-6f" x="458.289062"/>
     <use xlink:href="#DejaVuSans-75" x="519.470703"/>
     <use xlink:href="#DejaVuSans-72" x="582.849609"/>
     <use xlink:href="#DejaVuSans-63" x="621.712891"/>
     <use xlink:href="#DejaVuSans-65" x="676.693359"/>
     <use xlink:href="#DejaVuSans-3a" x="738.216797"/>
     <use xlink:href="#DejaVuSans-20" x="771.908203"/>
     <use xlink:href="#DejaVuSans-70" x="803.695312"/>
     <use xlink:href="#DejaVuSans-6f" x="867.171875"/>
     <use xlink:href="#DejaVuSans-77" x="928.353516"/>
     <use xlink:href="#DejaVuSans-65" x="1010.140625"/>
     <use xlink:href="#DejaVuSans-72" x="1071.664062"/>
     <use xlink:href="#DejaVuSans-20" x="1112.777344"/>
     <use xlink:href="#DejaVuSans-2f" x="1144.564453"/>
     <use xlink:href="#DejaVuSans-20" x="1178.255859"/>
     <use xlink:href="#DejaVuSans-63" x="1210.042969"/>
     <use xlink:href="#DejaVuSans-6c" x="1265.023438"/>
     <use xlink:href="#DejaVuSans-6f" x="1292.806641"/>
     <use xlink:href="#DejaVuSans-63" x="1353.988281"/>
     <use xlink:href="#DejaVuSans-6b" x="1408.96875"/>
     <use xlink:href="#DejaVuSans-20" x="1466.878906"/>
     <use xlink:href="#DejaVuSans-2f" x="1498.666016"/>
     <use xlink:href="#DejaVuSans-20" x="1532.357422"/>
     <use xlink:href="#DejaVuSans-65" x="1564.144531"/>
     <use xlink:href="#DejaVuSans-6e" x="1625.667969"/>
     <use xlink:href="#DejaVuSans-74" x="1689.046875"/>
     <use xlink:href="#DejaVuSans-72" x="1728.255859"/>
     <use xlink:href="#DejaVuSans-6f" x="1767.119141"/>
     <use xlink:href="#DejaVuSans-70" x="1828.300781"/>
     <use xlink:href="#DejaVuSans-79" x="1891.777344"/>
    </g>
   </g>
   <g id="text_21">
    <!-- Linear transport “synapse” (Green's fn) -->
    <g style="fill: #16a34a" transform="translate(413.084908 212.463463) scale(0.084 -0.084)">
     <defs>
      <path id="DejaVuSans-4c" d="M 628 4666 
L 1259 4666 
L 1259 531 
L 3531 531 
L 3531 0 
L 628 0 
L 628 4666 
z
" transform="scale(0.015625)"/>
      <path id="DejaVuSans-201c" d="M 1203 3128 
L 544 3128 
L 544 3669 
L 1056 4666 
L 1459 4666 
L 1203 3669 
L 1203 3128 
z
M 2484 3128 
L 1825 3128 
L 1825 3669 
L 2338 4666 
L 2741 4666 
L 2484 3669 
L 2484 3128 
z
" transform="scale(0.015625)"/>
      <path id="DejaVuSans-201d" d="M 800 4666 
L 1459 4666 
L 1459 4128 
L 947 3128 
L 544 3128 
L 800 4128 
L 800 4666 
z
M 2081 4666 
L 2741 4666 
L 2741 4128 
L 2228 3128 
L 1825 3128 
L 2081 4128 
L 2081 4666 
z
" transform="scale(0.015625)"/>
      <path id="DejaVuSans-47" d="M 3809 666 
L 3809 1919 
L 2778 1919 
L 2778 2438 
L 4434 2438 
L 4434 434 
Q 4069 175 3628 42 
Q 3188 -91 2688 -91 
Q 1594 -91 976 548 
Q 359 1188 359 2328 
Q 359 3472 976 4111 
Q 1594 4750 2688 4750 
Q 3144 4750 3555 4637 
Q 3966 4525 4313 4306 
L 4313 3634 
Q 3963 3931 3569 4081 
Q 3175 4231 2741 4231 
Q 1884 4231 1454 3753 
Q 1025 3275 1025 2328 
Q 1025 1384 1454 906 
Q 1884 428 2741 428 
Q 3075 428 3337 486 
Q 3600 544 3809 666 
z
" transform="scale(0.015625)"/>
      <path id="DejaVuSans-27" d="M 1147 4666 
L 1147 2931 
L 616 2931 
L 616 4666 
L 1147 4666 
z
" transform="scale(0.015625)"/>
     </defs>
     <use xlink:href="#DejaVuSans-4c"/>
     <use xlink:href="#DejaVuSans-69" x="55.712891"/>
     <use xlink:href="#DejaVuSans-6e" x="83.496094"/>
     <use xlink:href="#DejaVuSans-65" x="146.875"/>
     <use xlink:href="#DejaVuSans-61" x="208.398438"/>
     <use xlink:href="#DejaVuSans-72" x="269.677734"/>
     <use xlink:href="#DejaVuSans-20" x="310.791016"/>
     <use xlink:href="#DejaVuSans-74" x="342.578125"/>
     <use xlink:href="#DejaVuSans-72" x="381.787109"/>
     <use xlink:href="#DejaVuSans-61" x="422.900391"/>
     <use xlink:href="#DejaVuSans-6e" x="484.179688"/>
     <use xlink:href="#DejaVuSans-73" x="547.558594"/>
     <use xlink:href="#DejaVuSans-70" x="599.658203"/>
     <use xlink:href="#DejaVuSans-6f" x="663.134766"/>
     <use xlink:href="#DejaVuSans-72" x="724.316406"/>
     <use xlink:href="#DejaVuSans-74" x="765.429688"/>
     <use xlink:href="#DejaVuSans-20" x="804.638672"/>
     <use xlink:href="#DejaVuSans-201c" x="836.425781"/>
     <use xlink:href="#DejaVuSans-73" x="888.232422"/>
     <use xlink:href="#DejaVuSans-79" x="940.332031"/>
     <use xlink:href="#DejaVuSans-6e" x="999.511719"/>
     <use xlink:href="#DejaVuSans-61" x="1062.890625"/>
     <use xlink:href="#DejaVuSans-70" x="1124.169922"/>
     <use xlink:href="#DejaVuSans-73" x="1187.646484"/>
     <use xlink:href="#DejaVuSans-65" x="1239.746094"/>
     <use xlink:href="#DejaVuSans-201d" x="1301.269531"/>
     <use xlink:href="#DejaVuSans-20" x="1353.076172"/>
     <use xlink:href="#DejaVuSans-28" x="1384.863281"/>
     <use xlink:href="#DejaVuSans-47" x="1423.876953"/>
     <use xlink:href="#DejaVuSans-72" x="1501.367188"/>
     <use xlink:href="#DejaVuSans-65" x="1540.230469"/>
     <use xlink:href="#DejaVuSans-65" x="1601.753906"/>
     <use xlink:href="#DejaVuSans-6e" x="1663.277344"/>
     <use xlink:href="#DejaVuSans-27" x="1726.65625"/>
     <use xlink:href="#DejaVuSans-73" x="1754.146484"/>
     <use xlink:href="#DejaVuSans-20" x="1806.246094"/>
     <use xlink:href="#DejaVuSans-66" x="1838.033203"/>
     <use xlink:href="#DejaVuSans-6e" x="1873.238281"/>
     <use xlink:href="#DejaVuSans-29" x="1936.617188"/>
    </g>
   </g>
   <g id="text_22">
    <!-- Coincidence AND (γ–γ) -->
    <g style="fill: #16a34a" transform="translate(293.717439 160.382452) scale(0.084 -0.084)">
     <defs>
      <path id="DejaVuSans-43" d="M 4122 4306 
L 4122 3641 
Q 3803 3938 3442 4084 
Q 3081 4231 2675 4231 
Q 1875 4231 1450 3742 
Q 1025 3253 1025 2328 
Q 1025 1406 1450 917 
Q 1875 428 2675 428 
Q 3081 428 3442 575 
Q 3803 722 4122 1019 
L 4122 359 
Q 3791 134 3420 21 
Q 3050 -91 2638 -91 
Q 1578 -91 968 557 
Q 359 1206 359 2328 
Q 359 3453 968 4101 
Q 1578 4750 2638 4750 
Q 3056 4750 3426 4639 
Q 3797 4528 4122 4306 
z
" transform="scale(0.015625)"/>
      <path id="DejaVuSans-41" d="M 2188 4044 
L 1331 1722 
L 3047 1722 
L 2188 4044 
z
M 1831 4666 
L 2547 4666 
L 4325 0 
L 3669 0 
L 3244 1197 
L 1141 1197 
L 716 0 
L 50 0 
L 1831 4666 
z
" transform="scale(0.015625)"/>
      <path id="DejaVuSans-4e" d="M 628 4666 
L 1478 4666 
L 3547 763 
L 3547 4666 
L 4159 4666 
L 4159 0 
L 3309 0 
L 1241 3903 
L 1241 0 
L 628 0 
L 628 4666 
z
" transform="scale(0.015625)"/>
      <path id="DejaVuSans-44" d="M 1259 4147 
L 1259 519 
L 2022 519 
Q 2988 519 3436 956 
Q 3884 1394 3884 2338 
Q 3884 3275 3436 3711 
Q 2988 4147 2022 4147 
L 1259 4147 
z
M 628 4666 
L 1925 4666 
Q 3281 4666 3915 4102 
Q 4550 3538 4550 2338 
Q 4550 1131 3912 565 
Q 3275 0 1925 0 
L 628 0 
L 628 4666 
z
" transform="scale(0.015625)"/>
      <path id="DejaVuSans-3b3" d="M 1128 2950 
L 1894 788 
L 2988 3500 
L 3597 3500 
L 2181 0 
L 2181 -1331 
L 1606 -1331 
L 1606 0 
L 688 2613 
Q 550 3006 253 3006 
L 100 3006 
L 100 3500 
L 319 3500 
Q 934 3500 1128 2950 
z
" transform="scale(0.015625)"/>
      <path id="DejaVuSans-2013" d="M 313 1978 
L 2888 1978 
L 2888 1528 
L 313 1528 
L 313 1978 
z
" transform="scale(0.015625)"/>
     </defs>
     <use xlink:href="#DejaVuSans-43"/>
     <use xlink:href="#DejaVuSans-6f" x="69.824219"/>
     <use xlink:href="#DejaVuSans-69" x="131.005859"/>
     <use xlink:href="#DejaVuSans-6e" x="158.789062"/>
     <use xlink:href="#DejaVuSans-63" x="222.167969"/>
     <use xlink:href="#DejaVuSans-69" x="277.148438"/>
     <use xlink:href="#DejaVuSans-64" x="304.931641"/>
     <use xlink:href="#DejaVuSans-65" x="368.408203"/>
     <use xlink:href="#DejaVuSans-6e" x="429.931641"/>
     <use xlink:href="#DejaVuSans-63" x="493.310547"/>
     <use xlink:href="#DejaVuSans-65" x="548.291016"/>
     <use xlink:href="#DejaVuSans-20" x="609.814453"/>
     <use xlink:href="#DejaVuSans-41" x="641.601562"/>
     <use xlink:href="#DejaVuSans-4e" x="710.009766"/>
     <use xlink:href="#DejaVuSans-44" x="784.814453"/>
     <use xlink:href="#DejaVuSans-20" x="861.816406"/>
     <use xlink:href="#DejaVuSans-28" x="893.603516"/>
     <use xlink:href="#DejaVuSans-3b3" x="932.617188"/>
     <use xlink:href="#DejaVuSans-2013" x="991.796875"/>
     <use xlink:href="#DejaVuSans-3b3" x="1041.796875"/>
     <use xlink:href="#DejaVuSans-29" x="1100.976562"/>
    </g>
   </g>
   <g id="text_23">
    <!-- Absorption NOT / scattering MUX -->
    <g style="fill: #16a34a" transform="translate(216.836697 318.992804) scale(0.084 -0.084)">
     <defs>
      <path id="DejaVuSans-4f" d="M 2522 4238 
Q 1834 4238 1429 3725 
Q 1025 3213 1025 2328 
Q 1025 1447 1429 934 
Q 1834 422 2522 422 
Q 3209 422 3611 934 
Q 4013 1447 4013 2328 
Q 4013 3213 3611 3725 
Q 3209 4238 2522 4238 
z
M 2522 4750 
Q 3503 4750 4090 4092 
Q 4678 3434 4678 2328 
Q 4678 1225 4090 567 
Q 3503 -91 2522 -91 
Q 1538 -91 948 565 
Q 359 1222 359 2328 
Q 359 3434 948 4092 
Q 1538 4750 2522 4750 
z
" transform="scale(0.015625)"/>
      <path id="DejaVuSans-54" d="M -19 4666 
L 3928 4666 
L 3928 4134 
L 2272 4134 
L 2272 0 
L 1638 0 
L 1638 4134 
L -19 4134 
L -19 4666 
z
" transform="scale(0.015625)"/>
      <path id="DejaVuSans-67" d="M 2906 1791 
Q 2906 2416 2648 2759 
Q 2391 3103 1925 3103 
Q 1463 3103 1205 2759 
Q 947 2416 947 1791 
Q 947 1169 1205 825 
Q 1463 481 1925 481 
Q 2391 481 2648 825 
Q 2906 1169 2906 1791 
z
M 3481 434 
Q 3481 -459 3084 -895 
Q 2688 -1331 1869 -1331 
Q 1566 -1331 1297 -1286 
Q 1028 -1241 775 -1147 
L 775 -588 
Q 1028 -725 1275 -790 
Q 1522 -856 1778 -856 
Q 2344 -856 2625 -561 
Q 2906 -266 2906 331 
L 2906 616 
Q 2728 306 2450 153 
Q 2172 0 1784 0 
Q 1141 0 747 490 
Q 353 981 353 1791 
Q 353 2603 747 3093 
Q 1141 3584 1784 3584 
Q 2172 3584 2450 3431 
Q 2728 3278 2906 2969 
L 2906 3500 
L 3481 3500 
L 3481 434 
z
" transform="scale(0.015625)"/>
      <path id="DejaVuSans-4d" d="M 628 4666 
L 1569 4666 
L 2759 1491 
L 3956 4666 
L 4897 4666 
L 4897 0 
L 4281 0 
L 4281 4097 
L 3078 897 
L 2444 897 
L 1241 4097 
L 1241 0 
L 628 0 
L 628 4666 
z
" transform="scale(0.015625)"/>
      <path id="DejaVuSans-55" d="M 556 4666 
L 1191 4666 
L 1191 1831 
Q 1191 1081 1462 751 
Q 1734 422 2344 422 
Q 2950 422 3222 751 
Q 3494 1081 3494 1831 
L 3494 4666 
L 4128 4666 
L 4128 1753 
Q 4128 841 3676 375 
Q 3225 -91 2344 -91 
Q 1459 -91 1007 375 
Q 556 841 556 1753 
L 556 4666 
z
" transform="scale(0.015625)"/>
      <path id="DejaVuSans-58" d="M 403 4666 
L 1081 4666 
L 2241 2931 
L 3406 4666 
L 4084 4666 
L 2584 2425 
L 4184 0 
L 3506 0 
L 2194 1984 
L 872 0 
L 191 0 
L 1856 2491 
L 403 4666 
z
" transform="scale(0.015625)"/>
     </defs>
     <use xlink:href="#DejaVuSans-41"/>
     <use xlink:href="#DejaVuSans-62" x="68.408203"/>
     <use xlink:href="#DejaVuSans-73" x="131.884766"/>
     <use xlink:href="#DejaVuSans-6f" x="183.984375"/>
     <use xlink:href="#DejaVuSans-72" x="245.166016"/>
     <use xlink:href="#DejaVuSans-70" x="286.279297"/>
     <use xlink:href="#DejaVuSans-74" x="349.755859"/>
     <use xlink:href="#DejaVuSans-69" x="388.964844"/>
     <use xlink:href="#DejaVuSans-6f" x="416.748047"/>
     <use xlink:href="#DejaVuSans-6e" x="477.929688"/>
     <use xlink:href="#DejaVuSans-20" x="541.308594"/>
     <use xlink:href="#DejaVuSans-4e" x="573.095703"/>
     <use xlink:href="#DejaVuSans-4f" x="647.900391"/>
     <use xlink:href="#DejaVuSans-54" x="726.611328"/>
     <use xlink:href="#DejaVuSans-20" x="787.695312"/>
     <use xlink:href="#DejaVuSans-2f" x="819.482422"/>
     <use xlink:href="#DejaVuSans-20" x="853.173828"/>
     <use xlink:href="#DejaVuSans-73" x="884.960938"/>
     <use xlink:href="#DejaVuSans-63" x="937.060547"/>
     <use xlink:href="#DejaVuSans-61" x="992.041016"/>
     <use xlink:href="#DejaVuSans-74" x="1053.320312"/>
     <use xlink:href="#DejaVuSans-74" x="1092.529297"/>
     <use xlink:href="#DejaVuSans-65" x="1131.738281"/>
     <use xlink:href="#DejaVuSans-72" x="1193.261719"/>
     <use xlink:href="#DejaVuSans-69" x="1234.375"/>
     <use xlink:href="#DejaVuSans-6e" x="1262.158203"/>
     <use xlink:href="#DejaVuSans-67" x="1325.537109"/>
     <use xlink:href="#DejaVuSans-20" x="1389.013672"/>
     <use xlink:href="#DejaVuSans-4d" x="1420.800781"/>
     <use xlink:href="#DejaVuSans-55" x="1507.080078"/>
     <use xlink:href="#DejaVuSans-58" x="1580.273438"/>
    </g>
   </g>
   <g id="text_24">
    <!-- Th-229 isomer memory (laser R/W) -->
    <g style="fill: #2563eb" transform="translate(156.141374 195.892232) scale(0.084 -0.084)">
     <defs>
      <path id="DejaVuSans-2d" d="M 313 2009 
L 1997 2009 
L 1997 1497 
L 313 1497 
L 313 2009 
z
" transform="scale(0.015625)"/>
      <path id="DejaVuSans-52" d="M 2841 2188 
Q 3044 2119 3236 1894 
Q 3428 1669 3622 1275 
L 4263 0 
L 3584 0 
L 2988 1197 
Q 2756 1666 2539 1819 
Q 2322 1972 1947 1972 
L 1259 1972 
L 1259 0 
L 628 0 
L 628 4666 
L 2053 4666 
Q 2853 4666 3247 4331 
Q 3641 3997 3641 3322 
Q 3641 2881 3436 2590 
Q 3231 2300 2841 2188 
z
M 1259 4147 
L 1259 2491 
L 2053 2491 
Q 2509 2491 2742 2702 
Q 2975 2913 2975 3322 
Q 2975 3731 2742 3939 
Q 2509 4147 2053 4147 
L 1259 4147 
z
" transform="scale(0.015625)"/>
      <path id="DejaVuSans-57" d="M 213 4666 
L 850 4666 
L 1831 722 
L 2809 4666 
L 3519 4666 
L 4500 722 
L 5478 4666 
L 6119 4666 
L 4947 0 
L 4153 0 
L 3169 4050 
L 2175 0 
L 1381 0 
L 213 4666 
z
" transform="scale(0.015625)"/>
     </defs>
     <use xlink:href="#DejaVuSans-54"/>
     <use xlink:href="#DejaVuSans-68" x="61.083984"/>
     <use xlink:href="#DejaVuSans-2d" x="124.462891"/>
     <use xlink:href="#DejaVuSans-32" x="160.546875"/>
     <use xlink:href="#DejaVuSans-32" x="224.169922"/>
     <use xlink:href="#DejaVuSans-39" x="287.792969"/>
     <use xlink:href="#DejaVuSans-20" x="351.416016"/>
     <use xlink:href="#DejaVuSans-69" x="383.203125"/>
     <use xlink:href="#DejaVuSans-73" x="410.986328"/>
     <use xlink:href="#DejaVuSans-6f" x="463.085938"/>
     <use xlink:href="#DejaVuSans-6d" x="524.267578"/>
     <use xlink:href="#DejaVuSans-65" x="621.679688"/>
     <use xlink:href="#DejaVuSans-72" x="683.203125"/>
     <use xlink:href="#DejaVuSans-20" x="724.316406"/>
     <use xlink:href="#DejaVuSans-6d" x="756.103516"/>
     <use xlink:href="#DejaVuSans-65" x="853.515625"/>
     <use xlink:href="#DejaVuSans-6d" x="915.039062"/>
     <use xlink:href="#DejaVuSans-6f" x="1012.451172"/>
     <use xlink:href="#DejaVuSans-72" x="1073.632812"/>
     <use xlink:href="#DejaVuSans-79" x="1114.746094"/>
     <use xlink:href="#DejaVuSans-20" x="1173.925781"/>
     <use xlink:href="#DejaVuSans-28" x="1205.712891"/>
     <use xlink:href="#DejaVuSans-6c" x="1244.726562"/>
     <use xlink:href="#DejaVuSans-61" x="1272.509766"/>
     <use xlink:href="#DejaVuSans-73" x="1333.789062"/>
     <use xlink:href="#DejaVuSans-65" x="1385.888672"/>
     <use xlink:href="#DejaVuSans-72" x="1447.412109"/>
     <use xlink:href="#DejaVuSans-20" x="1488.525391"/>
     <use xlink:href="#DejaVuSans-52" x="1520.3125"/>
     <use xlink:href="#DejaVuSans-2f" x="1589.794922"/>
     <use xlink:href="#DejaVuSans-57" x="1623.486328"/>
     <use xlink:href="#DejaVuSans-29" x="1722.363281"/>
    </g>
   </g>
   <g id="text_25">
    <!-- Mossbauer γ quantum optics -->
    <g style="fill: #2563eb" transform="translate(276.722749 259.809837) scale(0.084 -0.084)">
     <defs>
      <path id="DejaVuSans-71" d="M 947 1747 
Q 947 1113 1208 752 
Q 1469 391 1925 391 
Q 2381 391 2643 752 
Q 2906 1113 2906 1747 
Q 2906 2381 2643 2742 
Q 2381 3103 1925 3103 
Q 1469 3103 1208 2742 
Q 947 2381 947 1747 
z
M 2906 525 
Q 2725 213 2448 61 
Q 2172 -91 1784 -91 
Q 1150 -91 751 415 
Q 353 922 353 1747 
Q 353 2572 751 3078 
Q 1150 3584 1784 3584 
Q 2172 3584 2448 3432 
Q 2725 3281 2906 2969 
L 2906 3500 
L 3481 3500 
L 3481 -1331 
L 2906 -1331 
L 2906 525 
z
" transform="scale(0.015625)"/>
     </defs>
     <use xlink:href="#DejaVuSans-4d"/>
     <use xlink:href="#DejaVuSans-6f" x="86.279297"/>
     <use xlink:href="#DejaVuSans-73" x="147.460938"/>
     <use xlink:href="#DejaVuSans-73" x="199.560547"/>
     <use xlink:href="#DejaVuSans-62" x="251.660156"/>
     <use xlink:href="#DejaVuSans-61" x="315.136719"/>
     <use xlink:href="#DejaVuSans-75" x="376.416016"/>
     <use xlink:href="#DejaVuSans-65" x="439.794922"/>
     <use xlink:href="#DejaVuSans-72" x="501.318359"/>
     <use xlink:href="#DejaVuSans-20" x="542.431641"/>
     <use xlink:href="#DejaVuSans-3b3" x="574.21875"/>
     <use xlink:href="#DejaVuSans-20" x="633.398438"/>
     <use xlink:href="#DejaVuSans-71" x="665.185547"/>
     <use xlink:href="#DejaVuSans-75" x="728.662109"/>
     <use xlink:href="#DejaVuSans-61" x="792.041016"/>
     <use xlink:href="#DejaVuSans-6e" x="853.320312"/>
     <use xlink:href="#DejaVuSans-74" x="916.699219"/>
     <use xlink:href="#DejaVuSans-75" x="955.908203"/>
     <use xlink:href="#DejaVuSans-6d" x="1019.287109"/>
     <use xlink:href="#DejaVuSans-20" x="1116.699219"/>
     <use xlink:href="#DejaVuSans-6f" x="1148.486328"/>
     <use xlink:href="#DejaVuSans-70" x="1209.667969"/>
     <use xlink:href="#DejaVuSans-74" x="1273.144531"/>
     <use xlink:href="#DejaVuSans-69" x="1312.353516"/>
     <use xlink:href="#DejaVuSans-63" x="1340.136719"/>
     <use xlink:href="#DejaVuSans-73" x="1395.117188"/>
    </g>
   </g>
   <g id="text_26">
    <!-- Entangled annihilation γ (Tier-2) -->
    <g style="fill: #7c3aed" transform="translate(236.2592 302.421573) scale(0.084 -0.084)">
     <defs>
      <path id="DejaVuSans-45" d="M 628 4666 
L 3578 4666 
L 3578 4134 
L 1259 4134 
L 1259 2753 
L 3481 2753 
L 3481 2222 
L 1259 2222 
L 1259 531 
L 3634 531 
L 3634 0 
L 628 0 
L 628 4666 
z
" transform="scale(0.015625)"/>
     </defs>
     <use xlink:href="#DejaVuSans-45"/>
     <use xlink:href="#DejaVuSans-6e" x="63.183594"/>
     <use xlink:href="#DejaVuSans-74" x="126.5625"/>
     <use xlink:href="#DejaVuSans-61" x="165.771484"/>
     <use xlink:href="#DejaVuSans-6e" x="227.050781"/>
     <use xlink:href="#DejaVuSans-67" x="290.429688"/>
     <use xlink:href="#DejaVuSans-6c" x="353.90625"/>
     <use xlink:href="#DejaVuSans-65" x="381.689453"/>
     <use xlink:href="#DejaVuSans-64" x="443.212891"/>
     <use xlink:href="#DejaVuSans-20" x="506.689453"/>
     <use xlink:href="#DejaVuSans-61" x="538.476562"/>
     <use xlink:href="#DejaVuSans-6e" x="599.755859"/>
     <use xlink:href="#DejaVuSans-6e" x="663.134766"/>
     <use xlink:href="#DejaVuSans-69" x="726.513672"/>
     <use xlink:href="#DejaVuSans-68" x="754.296875"/>
     <use xlink:href="#DejaVuSans-69" x="817.675781"/>
     <use xlink:href="#DejaVuSans-6c" x="845.458984"/>
     <use xlink:href="#DejaVuSans-61" x="873.242188"/>
     <use xlink:href="#DejaVuSans-74" x="934.521484"/>
     <use xlink:href="#DejaVuSans-69" x="973.730469"/>
     <use xlink:href="#DejaVuSans-6f" x="1001.513672"/>
     <use xlink:href="#DejaVuSans-6e" x="1062.695312"/>
     <use xlink:href="#DejaVuSans-20" x="1126.074219"/>
     <use xlink:href="#DejaVuSans-3b3" x="1157.861328"/>
     <use xlink:href="#DejaVuSans-20" x="1217.041016"/>
     <use xlink:href="#DejaVuSans-28" x="1248.828125"/>
     <use xlink:href="#DejaVuSans-54" x="1287.841797"/>
     <use xlink:href="#DejaVuSans-69" x="1345.800781"/>
     <use xlink:href="#DejaVuSans-65" x="1373.583984"/>
     <use xlink:href="#DejaVuSans-72" x="1435.107422"/>
     <use xlink:href="#DejaVuSans-2d" x="1469.845703"/>
     <use xlink:href="#DejaVuSans-32" x="1505.929688"/>
     <use xlink:href="#DejaVuSans-29" x="1569.552734"/>
    </g>
   </g>
   <g id="text_27">
    <!-- TRIGGERED-RELEASE GATE -->
    <g style="fill: #dc2626" transform="translate(54.982502 136.772378) scale(0.084 -0.084)">
     <defs>
      <path id="DejaVuSans-Bold-54" d="M 31 4666 
L 4331 4666 
L 4331 3756 
L 2784 3756 
L 2784 0 
L 1581 0 
L 1581 3756 
L 31 3756 
L 31 4666 
z
" transform="scale(0.015625)"/>
      <path id="DejaVuSans-Bold-52" d="M 2297 2597 
Q 2675 2597 2839 2737 
Q 3003 2878 3003 3200 
Q 3003 3519 2839 3656 
Q 2675 3794 2297 3794 
L 1791 3794 
L 1791 2597 
L 2297 2597 
z
M 1791 1766 
L 1791 0 
L 588 0 
L 588 4666 
L 2425 4666 
Q 3347 4666 3776 4356 
Q 4206 4047 4206 3378 
Q 4206 2916 3982 2619 
Q 3759 2322 3309 2181 
Q 3556 2125 3751 1926 
Q 3947 1728 4147 1325 
L 4800 0 
L 3519 0 
L 2950 1159 
Q 2778 1509 2601 1637 
Q 2425 1766 2131 1766 
L 1791 1766 
z
" transform="scale(0.015625)"/>
      <path id="DejaVuSans-Bold-49" d="M 588 4666 
L 1791 4666 
L 1791 0 
L 588 0 
L 588 4666 
z
" transform="scale(0.015625)"/>
      <path id="DejaVuSans-Bold-47" d="M 4781 347 
Q 4331 128 3847 18 
Q 3363 -91 2847 -91 
Q 1681 -91 1000 561 
Q 319 1213 319 2328 
Q 319 3456 1012 4103 
Q 1706 4750 2913 4750 
Q 3378 4750 3804 4662 
Q 4231 4575 4609 4403 
L 4609 3438 
Q 4219 3659 3833 3768 
Q 3447 3878 3059 3878 
Q 2341 3878 1952 3476 
Q 1563 3075 1563 2328 
Q 1563 1588 1938 1184 
Q 2313 781 3003 781 
Q 3191 781 3352 804 
Q 3513 828 3641 878 
L 3641 1784 
L 2906 1784 
L 2906 2591 
L 4781 2591 
L 4781 347 
z
" transform="scale(0.015625)"/>
      <path id="DejaVuSans-Bold-45" d="M 588 4666 
L 3834 4666 
L 3834 3756 
L 1791 3756 
L 1791 2888 
L 3713 2888 
L 3713 1978 
L 1791 1978 
L 1791 909 
L 3903 909 
L 3903 0 
L 588 0 
L 588 4666 
z
" transform="scale(0.015625)"/>
      <path id="DejaVuSans-Bold-44" d="M 1791 3756 
L 1791 909 
L 2222 909 
Q 2959 909 3348 1275 
Q 3738 1641 3738 2338 
Q 3738 3031 3350 3393 
Q 2963 3756 2222 3756 
L 1791 3756 
z
M 588 4666 
L 1856 4666 
Q 2919 4666 3439 4514 
Q 3959 4363 4331 4000 
Q 4659 3684 4818 3271 
Q 4978 2859 4978 2338 
Q 4978 1809 4818 1395 
Q 4659 981 4331 666 
Q 3956 303 3431 151 
Q 2906 0 1856 0 
L 588 0 
L 588 4666 
z
" transform="scale(0.015625)"/>
      <path id="DejaVuSans-Bold-2d" d="M 347 2297 
L 2309 2297 
L 2309 1388 
L 347 1388 
L 347 2297 
z
" transform="scale(0.015625)"/>
      <path id="DejaVuSans-Bold-4c" d="M 588 4666 
L 1791 4666 
L 1791 909 
L 3903 909 
L 3903 0 
L 588 0 
L 588 4666 
z
" transform="scale(0.015625)"/>
      <path id="DejaVuSans-Bold-41" d="M 3419 850 
L 1538 850 
L 1241 0 
L 31 0 
L 1759 4666 
L 3194 4666 
L 4922 0 
L 3713 0 
L 3419 850 
z
M 1838 1716 
L 3116 1716 
L 2478 3572 
L 1838 1716 
z
" transform="scale(0.015625)"/>
      <path id="DejaVuSans-Bold-53" d="M 3834 4519 
L 3834 3531 
Q 3450 3703 3084 3790 
Q 2719 3878 2394 3878 
Q 1963 3878 1756 3759 
Q 1550 3641 1550 3391 
Q 1550 3203 1689 3098 
Q 1828 2994 2194 2919 
L 2706 2816 
Q 3484 2659 3812 2340 
Q 4141 2022 4141 1434 
Q 4141 663 3683 286 
Q 3225 -91 2284 -91 
Q 1841 -91 1394 -6 
Q 947 78 500 244 
L 500 1259 
Q 947 1022 1364 901 
Q 1781 781 2169 781 
Q 2563 781 2772 912 
Q 2981 1044 2981 1288 
Q 2981 1506 2839 1625 
Q 2697 1744 2272 1838 
L 1806 1941 
Q 1106 2091 782 2419 
Q 459 2747 459 3303 
Q 459 4000 909 4375 
Q 1359 4750 2203 4750 
Q 2588 4750 2994 4692 
Q 3400 4634 3834 4519 
z
" transform="scale(0.015625)"/>
     </defs>
     <use xlink:href="#DejaVuSans-Bold-54"/>
     <use xlink:href="#DejaVuSans-Bold-52" x="68.212891"/>
     <use xlink:href="#DejaVuSans-Bold-49" x="145.214844"/>
     <use xlink:href="#DejaVuSans-Bold-47" x="182.421875"/>
     <use xlink:href="#DejaVuSans-Bold-47" x="264.501953"/>
     <use xlink:href="#DejaVuSans-Bold-45" x="346.582031"/>
     <use xlink:href="#DejaVuSans-Bold-52" x="414.892578"/>
     <use xlink:href="#DejaVuSans-Bold-45" x="491.894531"/>
     <use xlink:href="#DejaVuSans-Bold-44" x="560.205078"/>
     <use xlink:href="#DejaVuSans-Bold-2d" x="645.087891"/>
     <use xlink:href="#DejaVuSans-Bold-52" x="686.591797"/>
     <use xlink:href="#DejaVuSans-Bold-45" x="763.59375"/>
     <use xlink:href="#DejaVuSans-Bold-4c" x="831.904297"/>
     <use xlink:href="#DejaVuSans-Bold-45" x="895.625"/>
     <use xlink:href="#DejaVuSans-Bold-41" x="963.935547"/>
     <use xlink:href="#DejaVuSans-Bold-53" x="1041.328125"/>
     <use xlink:href="#DejaVuSans-Bold-45" x="1113.349609"/>
     <use xlink:href="#DejaVuSans-Bold-20" x="1181.660156"/>
     <use xlink:href="#DejaVuSans-Bold-47" x="1216.474609"/>
     <use xlink:href="#DejaVuSans-Bold-41" x="1298.554688"/>
     <use xlink:href="#DejaVuSans-Bold-54" x="1368.197266"/>
     <use xlink:href="#DejaVuSans-Bold-45" x="1436.410156"/>
    </g>
    <!-- (NEEC / IGE) — THE KEYSTONE -->
    <g style="fill: #dc2626" transform="translate(54.982502 146.17854) scale(0.084 -0.084)">
     <defs>
      <path id="DejaVuSans-Bold-28" d="M 2413 -844 
L 1484 -844 
Q 1006 -72 778 623 
Q 550 1319 550 2003 
Q 550 2688 779 3389 
Q 1009 4091 1484 4856 
L 2413 4856 
Q 2013 4116 1813 3408 
Q 1613 2700 1613 2009 
Q 1613 1319 1811 609 
Q 2009 -100 2413 -844 
z
" transform="scale(0.015625)"/>
      <path id="DejaVuSans-Bold-4e" d="M 588 4666 
L 1931 4666 
L 3628 1466 
L 3628 4666 
L 4769 4666 
L 4769 0 
L 3425 0 
L 1728 3200 
L 1728 0 
L 588 0 
L 588 4666 
z
" transform="scale(0.015625)"/>
      <path id="DejaVuSans-Bold-43" d="M 4288 256 
Q 3956 84 3597 -3 
Q 3238 -91 2847 -91 
Q 1681 -91 1000 561 
Q 319 1213 319 2328 
Q 319 3447 1000 4098 
Q 1681 4750 2847 4750 
Q 3238 4750 3597 4662 
Q 3956 4575 4288 4403 
L 4288 3438 
Q 3953 3666 3628 3772 
Q 3303 3878 2944 3878 
Q 2300 3878 1931 3465 
Q 1563 3053 1563 2328 
Q 1563 1606 1931 1193 
Q 2300 781 2944 781 
Q 3303 781 3628 887 
Q 3953 994 4288 1222 
L 4288 256 
z
" transform="scale(0.015625)"/>
      <path id="DejaVuSans-Bold-2f" d="M 1644 4666 
L 2338 4666 
L 691 -594 
L 0 -594 
L 1644 4666 
z
" transform="scale(0.015625)"/>
      <path id="DejaVuSans-Bold-29" d="M 513 -844 
Q 913 -100 1113 609 
Q 1313 1319 1313 2009 
Q 1313 2700 1113 3408 
Q 913 4116 513 4856 
L 1441 4856 
Q 1916 4091 2145 3389 
Q 2375 2688 2375 2003 
Q 2375 1319 2147 623 
Q 1919 -72 1441 -844 
L 513 -844 
z
" transform="scale(0.015625)"/>
      <path id="DejaVuSans-Bold-2014" d="M 344 2156 
L 6056 2156 
L 6056 1350 
L 344 1350 
L 344 2156 
z
" transform="scale(0.015625)"/>
      <path id="DejaVuSans-Bold-48" d="M 588 4666 
L 1791 4666 
L 1791 2888 
L 3566 2888 
L 3566 4666 
L 4769 4666 
L 4769 0 
L 3566 0 
L 3566 1978 
L 1791 1978 
L 1791 0 
L 588 0 
L 588 4666 
z
" transform="scale(0.015625)"/>
      <path id="DejaVuSans-Bold-4b" d="M 588 4666 
L 1791 4666 
L 1791 2963 
L 3525 4666 
L 4922 4666 
L 2675 2456 
L 5153 0 
L 3647 0 
L 1791 1838 
L 1791 0 
L 588 0 
L 588 4666 
z
" transform="scale(0.015625)"/>
      <path id="DejaVuSans-Bold-59" d="M -63 4666 
L 1253 4666 
L 2316 3003 
L 3378 4666 
L 4697 4666 
L 2919 1966 
L 2919 0 
L 1716 0 
L 1716 1966 
L -63 4666 
z
" transform="scale(0.015625)"/>
      <path id="DejaVuSans-Bold-4f" d="M 2719 3878 
Q 2169 3878 1866 3472 
Q 1563 3066 1563 2328 
Q 1563 1594 1866 1187 
Q 2169 781 2719 781 
Q 3272 781 3575 1187 
Q 3878 1594 3878 2328 
Q 3878 3066 3575 3472 
Q 3272 3878 2719 3878 
z
M 2719 4750 
Q 3844 4750 4481 4106 
Q 5119 3463 5119 2328 
Q 5119 1197 4481 553 
Q 3844 -91 2719 -91 
Q 1597 -91 958 553 
Q 319 1197 319 2328 
Q 319 3463 958 4106 
Q 1597 4750 2719 4750 
z
" transform="scale(0.015625)"/>
     </defs>
     <use xlink:href="#DejaVuSans-Bold-28"/>
     <use xlink:href="#DejaVuSans-Bold-4e" x="45.703125"/>
     <use xlink:href="#DejaVuSans-Bold-45" x="129.394531"/>
     <use xlink:href="#DejaVuSans-Bold-45" x="197.705078"/>
     <use xlink:href="#DejaVuSans-Bold-43" x="266.015625"/>
     <use xlink:href="#DejaVuSans-Bold-20" x="339.404297"/>
     <use xlink:href="#DejaVuSans-Bold-2f" x="374.21875"/>
     <use xlink:href="#DejaVuSans-Bold-20" x="410.742188"/>
     <use xlink:href="#DejaVuSans-Bold-49" x="445.556641"/>
     <use xlink:href="#DejaVuSans-Bold-47" x="482.763672"/>
     <use xlink:href="#DejaVuSans-Bold-45" x="564.84375"/>
     <use xlink:href="#DejaVuSans-Bold-29" x="633.154297"/>
     <use xlink:href="#DejaVuSans-Bold-20" x="678.857422"/>
     <use xlink:href="#DejaVuSans-Bold-2014" x="713.671875"/>
     <use xlink:href="#DejaVuSans-Bold-20" x="813.671875"/>
     <use xlink:href="#DejaVuSans-Bold-54" x="848.486328"/>
     <use xlink:href="#DejaVuSans-Bold-48" x="916.699219"/>
     <use xlink:href="#DejaVuSans-Bold-45" x="1000.390625"/>
     <use xlink:href="#DejaVuSans-Bold-20" x="1068.701172"/>
     <use xlink:href="#DejaVuSans-Bold-4b" x="1103.515625"/>
     <use xlink:href="#DejaVuSans-Bold-45" x="1181.005859"/>
     <use xlink:href="#DejaVuSans-Bold-59" x="1249.316406"/>
     <use xlink:href="#DejaVuSans-Bold-53" x="1321.728516"/>
     <use xlink:href="#DejaVuSans-Bold-54" x="1393.75"/>
     <use xlink:href="#DejaVuSans-Bold-4f" x="1461.962891"/>
     <use xlink:href="#DejaVuSans-Bold-4e" x="1546.972656"/>
     <use xlink:href="#DejaVuSans-Bold-45" x="1630.664062"/>
    </g>
   </g>
  </g>
 </g>
 <defs>
  <clipPath id="p8d9bdd5d2c">
   <rect x="42.843438" y="23.077969" width="465.330809" height="331.424615"/>
  </clipPath>
 </defs>
</svg>
