<?xml version="1.0" encoding="utf-8" standalone="no"?>
<!DOCTYPE svg PUBLIC "-//W3C//DTD SVG 1.1//EN"
  "http://www.w3.org/Graphics/SVG/1.1/DTD/svg11.dtd">
<svg xmlns:xlink="http://www.w3.org/1999/xlink" width="492.515192pt" height="305.118522pt" viewBox="0 0 492.515192 305.118522" xmlns="http://www.w3.org/2000/svg" version="1.1">
 <metadata>
  <rdf:RDF xmlns:dc="http://purl.org/dc/elements/1.1/" xmlns:cc="http://creativecommons.org/ns#" xmlns:rdf="http://www.w3.org/1999/02/22-rdf-syntax-ns#">
   <cc:Work>
    <dc:type rdf:resource="http://purl.org/dc/dcmitype/StillImage"/>
    <dc:format>image/svg+xml</dc:format>
    <dc:creator>
     <cc:Agent>
      <dc:title>Matplotlib v3.9.4, https://matplotlib.org/</dc:title>
     </cc:Agent>
    </dc:creator>
   </cc:Work>
  </rdf:RDF>
 </metadata>
 <defs>
  <style type="text/css">*{stroke-linejoin: round; stroke-linecap: butt}</style>
 </defs>
 <g id="figure_1">
  <g id="patch_1">
   <path d="M 0 305.118522 
L 492.515192 305.118522 
L 492.515192 0 
L 0 0 
z
" style="fill: #ffffff"/>
  </g>
  <g id="axes_1">
   <g id="patch_2">
    <path d="M 42.8675 264.502584 
L 485.315192 264.502584 
L 485.315192 23.077969 
L 42.8675 23.077969 
z
" style="fill: #ffffff"/>
   </g>
   <g id="PolyCollection_1">
    <defs>
     <path id="mbab99d02d4" d="M 62.978759 -40.616394 
L 62.978759 -40.615938 
L 64.661709 -40.615938 
L 66.34466 -40.615938 
L 68.02761 -40.615938 
L 69.710561 -40.615938 
L 71.393511 -40.615938 
L 73.076462 -40.615938 
L 74.759412 -40.615938 
L 76.442363 -40.615938 
L 78.125313 -40.615938 
L 79.808264 -40.615938 
L 81.491214 -40.615938 
L 83.174165 -40.615938 
L 84.857116 -40.615938 
L 86.540066 -40.615938 
L 88.223017 -40.615938 
L 89.905967 -40.615938 
L 91.588918 -40.615938 
L 93.271868 -40.615938 
L 94.954819 -40.615938 
L 96.637769 -40.615938 
L 98.32072 -40.615938 
L 100.00367 -40.615938 
L 101.686621 -40.615938 
L 103.369571 -40.615938 
L 105.052522 -40.615938 
L 106.735472 -40.615938 
L 108.418423 -40.615938 
L 110.101373 -40.615938 
L 111.784324 -40.615938 
L 113.467274 -40.615938 
L 115.150225 -40.615938 
L 116.833175 -40.615938 
L 118.516126 -40.615938 
L 120.199076 -40.615938 
L 121.882027 -40.615938 
L 123.564978 -40.615938 
L 125.247928 -40.615938 
L 126.930879 -40.615938 
L 128.613829 -40.615938 
L 130.29678 -40.615938 
L 131.97973 -40.615938 
L 133.662681 -40.615938 
L 135.345631 -40.615938 
L 137.028582 -40.615938 
L 138.711532 -40.615938 
L 140.394483 -40.615938 
L 142.077433 -40.615938 
L 143.760384 -40.615938 
L 145.443334 -40.615938 
L 147.126285 -40.615938 
L 148.809235 -40.615938 
L 150.492186 -40.615938 
L 152.175136 -40.615938 
L 153.858087 -40.615938 
L 155.541037 -40.615938 
L 157.223988 -40.615938 
L 158.906939 -40.615938 
L 160.589889 -40.615938 
L 162.27284 -40.615938 
L 163.95579 -40.615938 
L 165.638741 -40.615938 
L 167.321691 -40.615938 
L 169.004642 -40.615938 
L 170.687592 -40.615938 
L 172.370543 -40.615938 
L 174.053493 -40.615938 
L 175.736444 -40.615938 
L 177.419394 -40.615938 
L 179.102345 -40.615938 
L 180.785295 -40.615938 
L 182.468246 -40.615938 
L 184.151196 -40.615938 
L 185.834147 -40.615938 
L 187.517097 -40.615938 
L 189.200048 -40.615938 
L 190.882998 -40.615938 
L 192.565949 -40.615938 
L 194.248899 -40.615938 
L 195.93185 -40.615938 
L 197.614801 -40.615938 
L 199.297751 -40.615938 
L 200.980702 -40.615938 
L 202.663652 -40.615938 
L 204.346603 -40.615938 
L 206.029553 -40.615938 
L 207.712504 -40.615938 
L 209.395454 -40.615938 
L 211.078405 -40.615938 
L 212.761355 -40.615938 
L 214.444306 -40.615938 
L 216.127256 -40.615938 
L 217.810207 -40.615938 
L 219.493157 -40.615938 
L 221.176108 -40.615938 
L 222.859058 -40.615938 
L 224.542009 -40.615938 
L 226.224959 -40.615938 
L 227.90791 -40.615938 
L 229.59086 -40.615938 
L 231.273811 -40.615938 
L 232.956761 -40.615938 
L 234.639712 -40.615938 
L 236.322663 -40.615938 
L 238.005613 -40.615938 
L 239.688564 -40.615938 
L 241.371514 -40.615938 
L 243.054465 -40.615938 
L 244.737415 -40.615938 
L 246.420366 -40.615938 
L 248.103316 -40.615938 
L 249.786267 -40.615938 
L 251.469217 -40.615938 
L 253.152168 -40.615938 
L 254.835118 -40.615938 
L 256.518069 -40.615938 
L 258.201019 -40.615938 
L 259.88397 -40.615938 
L 261.56692 -40.615938 
L 263.249871 -40.615938 
L 264.932821 -40.615938 
L 266.615772 -40.615938 
L 268.298722 -40.615938 
L 269.981673 -40.615938 
L 271.664624 -40.615938 
L 273.347574 -40.615938 
L 275.030525 -40.615938 
L 276.713475 -40.615938 
L 278.396426 -40.615938 
L 280.079376 -40.615938 
L 281.762327 -40.615938 
L 283.445277 -40.615938 
L 285.128228 -40.615938 
L 286.811178 -40.615938 
L 288.494129 -40.615938 
L 290.177079 -40.615938 
L 291.86003 -40.615938 
L 293.54298 -40.615938 
L 295.225931 -40.615938 
L 296.908881 -40.615938 
L 298.591832 -40.615938 
L 300.274782 -40.615938 
L 301.957733 -40.615938 
L 303.640683 -40.615938 
L 305.323634 -40.615938 
L 307.006584 -40.615938 
L 308.689535 -40.615938 
L 310.372486 -40.615938 
L 312.055436 -40.615938 
L 313.738387 -40.615938 
L 315.421337 -40.615938 
L 317.104288 -40.615938 
L 318.787238 -40.615938 
L 320.470189 -40.615938 
L 322.153139 -40.615938 
L 323.83609 -40.615938 
L 325.51904 -40.615938 
L 327.201991 -40.615938 
L 328.884941 -40.615938 
L 330.567892 -40.615938 
L 332.250842 -40.615938 
L 333.933793 -40.615938 
L 335.616743 -40.615938 
L 337.299694 -40.615938 
L 338.982644 -40.615938 
L 340.665595 -40.615938 
L 342.348545 -40.615938 
L 344.031496 -40.615938 
L 345.714446 -40.615938 
L 347.397397 -40.615938 
L 349.080348 -40.615938 
L 350.763298 -40.615938 
L 352.446249 -40.615938 
L 354.129199 -40.615938 
L 355.81215 -40.615938 
L 357.4951 -40.615938 
L 359.178051 -40.615938 
L 360.861001 -40.615938 
L 362.543952 -40.615938 
L 364.226902 -40.615938 
L 365.909853 -40.615938 
L 367.592803 -40.615938 
L 369.275754 -40.615938 
L 370.958704 -40.615938 
L 372.641655 -40.615938 
L 374.324605 -40.615938 
L 376.007556 -40.615938 
L 377.690506 -40.615938 
L 379.373457 -40.615938 
L 381.056407 -40.615938 
L 382.739358 -40.615938 
L 384.422308 -40.615938 
L 386.105259 -40.615938 
L 387.78821 -40.615938 
L 389.47116 -40.615938 
L 391.154111 -40.615938 
L 392.837061 -40.615938 
L 394.520012 -40.615938 
L 396.202962 -40.615938 
L 397.885913 -40.615938 
L 399.568863 -40.615938 
L 401.251814 -40.615938 
L 402.934764 -40.615938 
L 404.617715 -40.615938 
L 406.300665 -40.615938 
L 407.983616 -40.615938 
L 409.666566 -40.615938 
L 411.349517 -40.615938 
L 413.032467 -40.615938 
L 414.715418 -40.615938 
L 416.398368 -40.615938 
L 418.081319 -40.615938 
L 419.764269 -40.615938 
L 421.44722 -40.615938 
L 423.130171 -40.615938 
L 424.813121 -40.615938 
L 426.496072 -40.615938 
L 428.179022 -40.615938 
L 429.861973 -40.615938 
L 431.544923 -40.615938 
L 433.227874 -40.615938 
L 434.910824 -40.615938 
L 436.593775 -40.615938 
L 438.276725 -40.615938 
L 439.959676 -40.615938 
L 441.642626 -40.615938 
L 443.325577 -40.615938 
L 445.008527 -40.615938 
L 446.691478 -40.615938 
L 448.374428 -40.615938 
L 450.057379 -40.615938 
L 451.740329 -40.615938 
L 453.42328 -40.615938 
L 455.10623 -40.615938 
L 456.789181 -40.615938 
L 458.472131 -40.615938 
L 460.155082 -40.615938 
L 461.838033 -40.615938 
L 463.520983 -40.615938 
L 465.203934 -40.615938 
L 465.203934 -264.157248 
L 465.203934 -264.157248 
L 463.520983 -262.845112 
L 461.838033 -261.540944 
L 460.155082 -260.223628 
L 458.472131 -258.908822 
L 456.789181 -257.587798 
L 455.10623 -256.264139 
L 453.42328 -254.938765 
L 451.740329 -253.607796 
L 450.057379 -252.274692 
L 448.374428 -250.937519 
L 446.691478 -249.597397 
L 445.008527 -248.2539 
L 443.325577 -246.906913 
L 441.642626 -245.556349 
L 439.959676 -244.202564 
L 438.276725 -242.845239 
L 436.593775 -241.484355 
L 434.910824 -240.120107 
L 433.227874 -238.752233 
L 431.544923 -237.380887 
L 429.861973 -236.005932 
L 428.179022 -234.627453 
L 426.496072 -233.245404 
L 424.813121 -231.859753 
L 423.130171 -230.470504 
L 421.44722 -229.077623 
L 419.764269 -227.681115 
L 418.081319 -226.280951 
L 416.398368 -224.877136 
L 414.715418 -223.469639 
L 413.032467 -222.058451 
L 411.349517 -220.64356 
L 409.666566 -219.224956 
L 407.983616 -217.802625 
L 406.300665 -216.376554 
L 404.617715 -214.946732 
L 402.934764 -213.51315 
L 401.251814 -212.075798 
L 399.568863 -210.634665 
L 397.885913 -209.189742 
L 396.202962 -207.741023 
L 394.520012 -206.288499 
L 392.837061 -204.832164 
L 391.154111 -203.372013 
L 389.47116 -201.908041 
L 387.78821 -200.440244 
L 386.105259 -198.96862 
L 384.422308 -197.493167 
L 382.739358 -196.013887 
L 381.056407 -194.53078 
L 379.373457 -193.043848 
L 377.690506 -191.553097 
L 376.007556 -190.058533 
L 374.324605 -188.560163 
L 372.641655 -187.057997 
L 370.958704 -185.552046 
L 369.275754 -184.042325 
L 367.592803 -182.528849 
L 365.909853 -181.011638 
L 364.226902 -179.490712 
L 362.543952 -177.966095 
L 360.861001 -176.437814 
L 359.178051 -174.905898 
L 357.4951 -173.37038 
L 355.81215 -171.831298 
L 354.129199 -170.288691 
L 352.446249 -168.742603 
L 350.763298 -167.193082 
L 349.080348 -165.640182 
L 347.397397 -164.083958 
L 345.714446 -162.524473 
L 344.031496 -160.961793 
L 342.348545 -159.395993 
L 340.665595 -157.827149 
L 338.982644 -156.255346 
L 337.299694 -154.680674 
L 335.616743 -153.103231 
L 333.933793 -151.523122 
L 332.250842 -149.940458 
L 330.567892 -148.355359 
L 328.884941 -146.767952 
L 327.201991 -145.178374 
L 325.51904 -143.586771 
L 323.83609 -141.993298 
L 322.153139 -140.39812 
L 320.470189 -138.801412 
L 318.787238 -137.20336 
L 317.104288 -135.604162 
L 315.421337 -134.004027 
L 313.738387 -132.403178 
L 312.055436 -130.801849 
L 310.372486 -129.200288 
L 308.689535 -127.598757 
L 307.006584 -125.997533 
L 305.323634 -124.396907 
L 303.640683 -122.797186 
L 301.957733 -121.198692 
L 300.274782 -119.601766 
L 298.591832 -118.006762 
L 296.908881 -116.414056 
L 295.225931 -114.824038 
L 293.54298 -113.237118 
L 291.86003 -111.653724 
L 290.177079 -110.074304 
L 288.494129 -108.499323 
L 286.811178 -106.929269 
L 285.128228 -105.364646 
L 283.445277 -103.805979 
L 281.762327 -102.253813 
L 280.079376 -100.708713 
L 278.396426 -99.171262 
L 276.713475 -97.642064 
L 275.030525 -96.12174 
L 273.347574 -94.610931 
L 271.664624 -93.110295 
L 269.981673 -91.620505 
L 268.298722 -90.142253 
L 266.615772 -88.676245 
L 264.932821 -87.2232 
L 263.249871 -85.783849 
L 261.56692 -84.358934 
L 259.88397 -82.949208 
L 258.201019 -81.555429 
L 256.518069 -80.178359 
L 254.835118 -78.818765 
L 253.152168 -77.477415 
L 251.469217 -76.155071 
L 249.786267 -74.852494 
L 248.103316 -73.570434 
L 246.420366 -72.309632 
L 244.737415 -71.070815 
L 243.054465 -69.854692 
L 241.371514 -68.66195 
L 239.688564 -67.493255 
L 238.005613 -66.349243 
L 236.322663 -65.230521 
L 234.639712 -64.137661 
L 232.956761 -63.071198 
L 231.273811 -62.031626 
L 229.59086 -61.019396 
L 227.90791 -60.034911 
L 226.224959 -59.078526 
L 224.542009 -58.150545 
L 222.859058 -57.251216 
L 221.176108 -56.380733 
L 219.493157 -55.539231 
L 217.810207 -54.72679 
L 216.127256 -53.943426 
L 214.444306 -53.189098 
L 212.761355 -52.463705 
L 211.078405 -51.767084 
L 209.395454 -51.099017 
L 207.712504 -50.459225 
L 206.029553 -49.847375 
L 204.346603 -49.263078 
L 202.663652 -48.705894 
L 200.980702 -48.175335 
L 199.297751 -47.670862 
L 197.614801 -47.191898 
L 195.93185 -46.737824 
L 194.248899 -46.307983 
L 192.565949 -45.901689 
L 190.882998 -45.518224 
L 189.200048 -45.156848 
L 187.517097 -44.816799 
L 185.834147 -44.497299 
L 184.151196 -44.197558 
L 182.468246 -43.916777 
L 180.785295 -43.654151 
L 179.102345 -43.408875 
L 177.419394 -43.180147 
L 175.736444 -42.967169 
L 174.053493 -42.769153 
L 172.370543 -42.585321 
L 170.687592 -42.414911 
L 169.004642 -42.257177 
L 167.321691 -42.111389 
L 165.638741 -41.976842 
L 163.95579 -41.85285 
L 162.27284 -41.738751 
L 160.589889 -41.633906 
L 158.906939 -41.537705 
L 157.223988 -41.449562 
L 155.541037 -41.368915 
L 153.858087 -41.295232 
L 152.175136 -41.228007 
L 150.492186 -41.166759 
L 148.809235 -41.111035 
L 147.126285 -41.060406 
L 145.443334 -41.01447 
L 143.760384 -40.97285 
L 142.077433 -40.93519 
L 140.394483 -40.901161 
L 138.711532 -40.870453 
L 137.028582 -40.84278 
L 135.345631 -40.817875 
L 133.662681 -40.79549 
L 131.97973 -40.775397 
L 130.29678 -40.757386 
L 128.613829 -40.741261 
L 126.930879 -40.726843 
L 125.247928 -40.71397 
L 123.564978 -40.702489 
L 121.882027 -40.692263 
L 120.199076 -40.683167 
L 118.516126 -40.675087 
L 116.833175 -40.667917 
L 115.150225 -40.661564 
L 113.467274 -40.655941 
L 111.784324 -40.65097 
L 110.101373 -40.646582 
L 108.418423 -40.642713 
L 106.735472 -40.639305 
L 105.052522 -40.636308 
L 103.369571 -40.633675 
L 101.686621 -40.631365 
L 100.00367 -40.62934 
L 98.32072 -40.627568 
L 96.637769 -40.626019 
L 94.954819 -40.624666 
L 93.271868 -40.623486 
L 91.588918 -40.622458 
L 89.905967 -40.621564 
L 88.223017 -40.620787 
L 86.540066 -40.620113 
L 84.857116 -40.619528 
L 83.174165 -40.619022 
L 81.491214 -40.618584 
L 79.808264 -40.618206 
L 78.125313 -40.61788 
L 76.442363 -40.617598 
L 74.759412 -40.617356 
L 73.076462 -40.617148 
L 71.393511 -40.616969 
L 69.710561 -40.616816 
L 68.02761 -40.616684 
L 66.34466 -40.616572 
L 64.661709 -40.616476 
L 62.978759 -40.616394 
z
" style="stroke: #7c3aed; stroke-opacity: 0.07"/>
    </defs>
    <g clip-path="url(#p6dd267a282)">
     <use xlink:href="#mbab99d02d4" x="0" y="305.118522" style="fill: #7c3aed; fill-opacity: 0.07; stroke: #7c3aed; stroke-opacity: 0.07"/>
    </g>
   </g>
   <g id="matplotlib.axis_1">
    <g id="xtick_1">
     <g id="line2d_1">
      <path d="M 62.978759 264.502584 
L 62.978759 23.077969 
" clip-path="url(#p6dd267a282)" style="fill: none; stroke: #e5e7eb; stroke-width: 0.8; stroke-linecap: square"/>
     </g>
     <g id="line2d_2">
      <defs>
       <path id="m201974837b" d="M 0 0 
L 0 3.5 
" style="stroke: #16213e; stroke-width: 0.8"/>
      </defs>
      <g>
       <use xlink:href="#m201974837b" x="62.978759" y="264.502584" style="fill: #16213e; stroke: #16213e; stroke-width: 0.8"/>
      </g>
     </g>
     <g id="text_1">
      <!-- 0 -->
      <g style="fill: #16213e" transform="translate(59.479384 279.860865) scale(0.11 -0.11)">
       <defs>
        <path id="DejaVuSans-30" d="M 2034 4250 
Q 1547 4250 1301 3770 
Q 1056 3291 1056 2328 
Q 1056 1369 1301 889 
Q 1547 409 2034 409 
Q 2525 409 2770 889 
Q 3016 1369 3016 2328 
Q 3016 3291 2770 3770 
Q 2525 4250 2034 4250 
z
M 2034 4750 
Q 2819 4750 3233 4129 
Q 3647 3509 3647 2328 
Q 3647 1150 3233 529 
Q 2819 -91 2034 -91 
Q 1250 -91 836 529 
Q 422 1150 422 2328 
Q 422 3509 836 4129 
Q 1250 4750 2034 4750 
z
" transform="scale(0.015625)"/>
       </defs>
       <use xlink:href="#DejaVuSans-30"/>
      </g>
     </g>
    </g>
    <g id="xtick_2">
     <g id="line2d_3">
      <path d="M 154.393571 264.502584 
L 154.393571 23.077969 
" clip-path="url(#p6dd267a282)" style="fill: none; stroke: #e5e7eb; stroke-width: 0.8; stroke-linecap: square"/>
     </g>
     <g id="line2d_4">
      <g>
       <use xlink:href="#m201974837b" x="154.393571" y="264.502584" style="fill: #16213e; stroke: #16213e; stroke-width: 0.8"/>
      </g>
     </g>
     <g id="text_2">
      <!-- 5 -->
      <g style="fill: #16213e" transform="translate(150.894196 279.860865) scale(0.11 -0.11)">
       <defs>
        <path id="DejaVuSans-35" d="M 691 4666 
L 3169 4666 
L 3169 4134 
L 1269 4134 
L 1269 2991 
Q 1406 3038 1543 3061 
Q 1681 3084 1819 3084 
Q 2600 3084 3056 2656 
Q 3513 2228 3513 1497 
Q 3513 744 3044 326 
Q 2575 -91 1722 -91 
Q 1428 -91 1123 -41 
Q 819 9 494 109 
L 494 744 
Q 775 591 1075 516 
Q 1375 441 1709 441 
Q 2250 441 2565 725 
Q 2881 1009 2881 1497 
Q 2881 1984 2565 2268 
Q 2250 2553 1709 2553 
Q 1456 2553 1204 2497 
Q 953 2441 691 2322 
L 691 4666 
z
" transform="scale(0.015625)"/>
       </defs>
       <use xlink:href="#DejaVuSans-35"/>
      </g>
     </g>
    </g>
    <g id="xtick_3">
     <g id="line2d_5">
      <path d="M 245.808384 264.502584 
L 245.808384 23.077969 
" clip-path="url(#p6dd267a282)" style="fill: none; stroke: #e5e7eb; stroke-width: 0.8; stroke-linecap: square"/>
     </g>
     <g id="line2d_6">
      <g>
       <use xlink:href="#m201974837b" x="245.808384" y="264.502584" style="fill: #16213e; stroke: #16213e; stroke-width: 0.8"/>
      </g>
     </g>
     <g id="text_3">
      <!-- 10 -->
      <g style="fill: #16213e" transform="translate(238.809634 279.860865) scale(0.11 -0.11)">
       <defs>
        <path id="DejaVuSans-31" d="M 794 531 
L 1825 531 
L 1825 4091 
L 703 3866 
L 703 4441 
L 1819 4666 
L 2450 4666 
L 2450 531 
L 3481 531 
L 3481 0 
L 794 0 
L 794 531 
z
" transform="scale(0.015625)"/>
       </defs>
       <use xlink:href="#DejaVuSans-31"/>
       <use xlink:href="#DejaVuSans-30" x="63.623047"/>
      </g>
     </g>
    </g>
    <g id="xtick_4">
     <g id="line2d_7">
      <path d="M 337.223196 264.502584 
L 337.223196 23.077969 
" clip-path="url(#p6dd267a282)" style="fill: none; stroke: #e5e7eb; stroke-width: 0.8; stroke-linecap: square"/>
     </g>
     <g id="line2d_8">
      <g>
       <use xlink:href="#m201974837b" x="337.223196" y="264.502584" style="fill: #16213e; stroke: #16213e; stroke-width: 0.8"/>
      </g>
     </g>
     <g id="text_4">
      <!-- 15 -->
      <g style="fill: #16213e" transform="translate(330.224446 279.860865) scale(0.11 -0.11)">
       <use xlink:href="#DejaVuSans-31"/>
       <use xlink:href="#DejaVuSans-35" x="63.623047"/>
      </g>
     </g>
    </g>
    <g id="xtick_5">
     <g id="line2d_9">
      <path d="M 428.638009 264.502584 
L 428.638009 23.077969 
" clip-path="url(#p6dd267a282)" style="fill: none; stroke: #e5e7eb; stroke-width: 0.8; stroke-linecap: square"/>
     </g>
     <g id="line2d_10">
      <g>
       <use xlink:href="#m201974837b" x="428.638009" y="264.502584" style="fill: #16213e; stroke: #16213e; stroke-width: 0.8"/>
      </g>
     </g>
     <g id="text_5">
      <!-- 20 -->
      <g style="fill: #16213e" transform="translate(421.639259 279.860865) scale(0.11 -0.11)">
       <defs>
        <path id="DejaVuSans-32" d="M 1228 531 
L 3431 531 
L 3431 0 
L 469 0 
L 469 531 
Q 828 903 1448 1529 
Q 2069 2156 2228 2338 
Q 2531 2678 2651 2914 
Q 2772 3150 2772 3378 
Q 2772 3750 2511 3984 
Q 2250 4219 1831 4219 
Q 1534 4219 1204 4116 
Q 875 4013 500 3803 
L 500 4441 
Q 881 4594 1212 4672 
Q 1544 4750 1819 4750 
Q 2544 4750 2975 4387 
Q 3406 4025 3406 3419 
Q 3406 3131 3298 2873 
Q 3191 2616 2906 2266 
Q 2828 2175 2409 1742 
Q 1991 1309 1228 531 
z
" transform="scale(0.015625)"/>
       </defs>
       <use xlink:href="#DejaVuSans-32"/>
       <use xlink:href="#DejaVuSans-30" x="63.623047"/>
      </g>
     </g>
    </g>
    <g id="text_6">
     <!-- mean drive  $\mu$  (set by weighted photon flux  $\Sigma_j w_j\phi_j$) -->
     <g style="fill: #16213e" transform="translate(122.081346 294.508522) scale(0.11 -0.11)">
      <defs>
       <path id="DejaVuSans-6d" d="M 3328 2828 
Q 3544 3216 3844 3400 
Q 4144 3584 4550 3584 
Q 5097 3584 5394 3201 
Q 5691 2819 5691 2113 
L 5691 0 
L 5113 0 
L 5113 2094 
Q 5113 2597 4934 2840 
Q 4756 3084 4391 3084 
Q 3944 3084 3684 2787 
Q 3425 2491 3425 1978 
L 3425 0 
L 2847 0 
L 2847 2094 
Q 2847 2600 2669 2842 
Q 2491 3084 2119 3084 
Q 1678 3084 1418 2786 
Q 1159 2488 1159 1978 
L 1159 0 
L 581 0 
L 581 3500 
L 1159 3500 
L 1159 2956 
Q 1356 3278 1631 3431 
Q 1906 3584 2284 3584 
Q 2666 3584 2933 3390 
Q 3200 3197 3328 2828 
z
" transform="scale(0.015625)"/>
       <path id="DejaVuSans-65" d="M 3597 1894 
L 3597 1613 
L 953 1613 
Q 991 1019 1311 708 
Q 1631 397 2203 397 
Q 2534 397 2845 478 
Q 3156 559 3463 722 
L 3463 178 
Q 3153 47 2828 -22 
Q 2503 -91 2169 -91 
Q 1331 -91 842 396 
Q 353 884 353 1716 
Q 353 2575 817 3079 
Q 1281 3584 2069 3584 
Q 2775 3584 3186 3129 
Q 3597 2675 3597 1894 
z
M 3022 2063 
Q 3016 2534 2758 2815 
Q 2500 3097 2075 3097 
Q 1594 3097 1305 2825 
Q 1016 2553 972 2059 
L 3022 2063 
z
" transform="scale(0.015625)"/>
       <path id="DejaVuSans-61" d="M 2194 1759 
Q 1497 1759 1228 1600 
Q 959 1441 959 1056 
Q 959 750 1161 570 
Q 1363 391 1709 391 
Q 2188 391 2477 730 
Q 2766 1069 2766 1631 
L 2766 1759 
L 2194 1759 
z
M 3341 1997 
L 3341 0 
L 2766 0 
L 2766 531 
Q 2569 213 2275 61 
Q 1981 -91 1556 -91 
Q 1019 -91 701 211 
Q 384 513 384 1019 
Q 384 1609 779 1909 
Q 1175 2209 1959 2209 
L 2766 2209 
L 2766 2266 
Q 2766 2663 2505 2880 
Q 2244 3097 1772 3097 
Q 1472 3097 1187 3025 
Q 903 2953 641 2809 
L 641 3341 
Q 956 3463 1253 3523 
Q 1550 3584 1831 3584 
Q 2591 3584 2966 3190 
Q 3341 2797 3341 1997 
z
" transform="scale(0.015625)"/>
       <path id="DejaVuSans-6e" d="M 3513 2113 
L 3513 0 
L 2938 0 
L 2938 2094 
Q 2938 2591 2744 2837 
Q 2550 3084 2163 3084 
Q 1697 3084 1428 2787 
Q 1159 2491 1159 1978 
L 1159 0 
L 581 0 
L 581 3500 
L 1159 3500 
L 1159 2956 
Q 1366 3272 1645 3428 
Q 1925 3584 2291 3584 
Q 2894 3584 3203 3211 
Q 3513 2838 3513 2113 
z
" transform="scale(0.015625)"/>
       <path id="DejaVuSans-20" transform="scale(0.015625)"/>
       <path id="DejaVuSans-64" d="M 2906 2969 
L 2906 4863 
L 3481 4863 
L 3481 0 
L 2906 0 
L 2906 525 
Q 2725 213 2448 61 
Q 2172 -91 1784 -91 
Q 1150 -91 751 415 
Q 353 922 353 1747 
Q 353 2572 751 3078 
Q 1150 3584 1784 3584 
Q 2172 3584 2448 3432 
Q 2725 3281 2906 2969 
z
M 947 1747 
Q 947 1113 1208 752 
Q 1469 391 1925 391 
Q 2381 391 2643 752 
Q 2906 1113 2906 1747 
Q 2906 2381 2643 2742 
Q 2381 3103 1925 3103 
Q 1469 3103 1208 2742 
Q 947 2381 947 1747 
z
" transform="scale(0.015625)"/>
       <path id="DejaVuSans-72" d="M 2631 2963 
Q 2534 3019 2420 3045 
Q 2306 3072 2169 3072 
Q 1681 3072 1420 2755 
Q 1159 2438 1159 1844 
L 1159 0 
L 581 0 
L 581 3500 
L 1159 3500 
L 1159 2956 
Q 1341 3275 1631 3429 
Q 1922 3584 2338 3584 
Q 2397 3584 2469 3576 
Q 2541 3569 2628 3553 
L 2631 2963 
z
" transform="scale(0.015625)"/>
       <path id="DejaVuSans-69" d="M 603 3500 
L 1178 3500 
L 1178 0 
L 603 0 
L 603 3500 
z
M 603 4863 
L 1178 4863 
L 1178 4134 
L 603 4134 
L 603 4863 
z
" transform="scale(0.015625)"/>
       <path id="DejaVuSans-76" d="M 191 3500 
L 800 3500 
L 1894 563 
L 2988 3500 
L 3597 3500 
L 2284 0 
L 1503 0 
L 191 3500 
z
" transform="scale(0.015625)"/>
       <path id="DejaVuSans-Oblique-3bc" d="M -84 -1331 
L 856 3500 
L 1434 3500 
L 1009 1322 
Q 997 1256 987 1175 
Q 978 1094 978 1013 
Q 978 722 1161 565 
Q 1344 409 1684 409 
Q 2147 409 2431 671 
Q 2716 934 2816 1459 
L 3213 3500 
L 3788 3500 
L 3266 809 
Q 3253 750 3248 706 
Q 3244 663 3244 628 
Q 3244 531 3283 486 
Q 3322 441 3406 441 
Q 3438 441 3492 456 
Q 3547 472 3647 513 
L 3559 50 
Q 3422 -19 3297 -55 
Q 3172 -91 3053 -91 
Q 2847 -91 2730 40 
Q 2613 172 2613 403 
Q 2438 153 2195 31 
Q 1953 -91 1625 -91 
Q 1334 -91 1117 43 
Q 900 178 831 397 
L 494 -1331 
L -84 -1331 
z
" transform="scale(0.015625)"/>
       <path id="DejaVuSans-28" d="M 1984 4856 
Q 1566 4138 1362 3434 
Q 1159 2731 1159 2009 
Q 1159 1288 1364 580 
Q 1569 -128 1984 -844 
L 1484 -844 
Q 1016 -109 783 600 
Q 550 1309 550 2009 
Q 550 2706 781 3412 
Q 1013 4119 1484 4856 
L 1984 4856 
z
" transform="scale(0.015625)"/>
       <path id="DejaVuSans-73" d="M 2834 3397 
L 2834 2853 
Q 2591 2978 2328 3040 
Q 2066 3103 1784 3103 
Q 1356 3103 1142 2972 
Q 928 2841 928 2578 
Q 928 2378 1081 2264 
Q 1234 2150 1697 2047 
L 1894 2003 
Q 2506 1872 2764 1633 
Q 3022 1394 3022 966 
Q 3022 478 2636 193 
Q 2250 -91 1575 -91 
Q 1294 -91 989 -36 
Q 684 19 347 128 
L 347 722 
Q 666 556 975 473 
Q 1284 391 1588 391 
Q 1994 391 2212 530 
Q 2431 669 2431 922 
Q 2431 1156 2273 1281 
Q 2116 1406 1581 1522 
L 1381 1569 
Q 847 1681 609 1914 
Q 372 2147 372 2553 
Q 372 3047 722 3315 
Q 1072 3584 1716 3584 
Q 2034 3584 2315 3537 
Q 2597 3491 2834 3397 
z
" transform="scale(0.015625)"/>
       <path id="DejaVuSans-74" d="M 1172 4494 
L 1172 3500 
L 2356 3500 
L 2356 3053 
L 1172 3053 
L 1172 1153 
Q 1172 725 1289 603 
Q 1406 481 1766 481 
L 2356 481 
L 2356 0 
L 1766 0 
Q 1100 0 847 248 
Q 594 497 594 1153 
L 594 3053 
L 172 3053 
L 172 3500 
L 594 3500 
L 594 4494 
L 1172 4494 
z
" transform="scale(0.015625)"/>
       <path id="DejaVuSans-62" d="M 3116 1747 
Q 3116 2381 2855 2742 
Q 2594 3103 2138 3103 
Q 1681 3103 1420 2742 
Q 1159 2381 1159 1747 
Q 1159 1113 1420 752 
Q 1681 391 2138 391 
Q 2594 391 2855 752 
Q 3116 1113 3116 1747 
z
M 1159 2969 
Q 1341 3281 1617 3432 
Q 1894 3584 2278 3584 
Q 2916 3584 3314 3078 
Q 3713 2572 3713 1747 
Q 3713 922 3314 415 
Q 2916 -91 2278 -91 
Q 1894 -91 1617 61 
Q 1341 213 1159 525 
L 1159 0 
L 581 0 
L 581 4863 
L 1159 4863 
L 1159 2969 
z
" transform="scale(0.015625)"/>
       <path id="DejaVuSans-79" d="M 2059 -325 
Q 1816 -950 1584 -1140 
Q 1353 -1331 966 -1331 
L 506 -1331 
L 506 -850 
L 844 -850 
Q 1081 -850 1212 -737 
Q 1344 -625 1503 -206 
L 1606 56 
L 191 3500 
L 800 3500 
L 1894 763 
L 2988 3500 
L 3597 3500 
L 2059 -325 
z
" transform="scale(0.015625)"/>
       <path id="DejaVuSans-77" d="M 269 3500 
L 844 3500 
L 1563 769 
L 2278 3500 
L 2956 3500 
L 3675 769 
L 4391 3500 
L 4966 3500 
L 4050 0 
L 3372 0 
L 2619 2869 
L 1863 0 
L 1184 0 
L 269 3500 
z
" transform="scale(0.015625)"/>
       <path id="DejaVuSans-67" d="M 2906 1791 
Q 2906 2416 2648 2759 
Q 2391 3103 1925 3103 
Q 1463 3103 1205 2759 
Q 947 2416 947 1791 
Q 947 1169 1205 825 
Q 1463 481 1925 481 
Q 2391 481 2648 825 
Q 2906 1169 2906 1791 
z
M 3481 434 
Q 3481 -459 3084 -895 
Q 2688 -1331 1869 -1331 
Q 1566 -1331 1297 -1286 
Q 1028 -1241 775 -1147 
L 775 -588 
Q 1028 -725 1275 -790 
Q 1522 -856 1778 -856 
Q 2344 -856 2625 -561 
Q 2906 -266 2906 331 
L 2906 616 
Q 2728 306 2450 153 
Q 2172 0 1784 0 
Q 1141 0 747 490 
Q 353 981 353 1791 
Q 353 2603 747 3093 
Q 1141 3584 1784 3584 
Q 2172 3584 2450 3431 
Q 2728 3278 2906 2969 
L 2906 3500 
L 3481 3500 
L 3481 434 
z
" transform="scale(0.015625)"/>
       <path id="DejaVuSans-68" d="M 3513 2113 
L 3513 0 
L 2938 0 
L 2938 2094 
Q 2938 2591 2744 2837 
Q 2550 3084 2163 3084 
Q 1697 3084 1428 2787 
Q 1159 2491 1159 1978 
L 1159 0 
L 581 0 
L 581 4863 
L 1159 4863 
L 1159 2956 
Q 1366 3272 1645 3428 
Q 1925 3584 2291 3584 
Q 2894 3584 3203 3211 
Q 3513 2838 3513 2113 
z
" transform="scale(0.015625)"/>
       <path id="DejaVuSans-70" d="M 1159 525 
L 1159 -1331 
L 581 -1331 
L 581 3500 
L 1159 3500 
L 1159 2969 
Q 1341 3281 1617 3432 
Q 1894 3584 2278 3584 
Q 2916 3584 3314 3078 
Q 3713 2572 3713 1747 
Q 3713 922 3314 415 
Q 2916 -91 2278 -91 
Q 1894 -91 1617 61 
Q 1341 213 1159 525 
z
M 3116 1747 
Q 3116 2381 2855 2742 
Q 2594 3103 2138 3103 
Q 1681 3103 1420 2742 
Q 1159 2381 1159 1747 
Q 1159 1113 1420 752 
Q 1681 391 2138 391 
Q 2594 391 2855 752 
Q 3116 1113 3116 1747 
z
" transform="scale(0.015625)"/>
       <path id="DejaVuSans-6f" d="M 1959 3097 
Q 1497 3097 1228 2736 
Q 959 2375 959 1747 
Q 959 1119 1226 758 
Q 1494 397 1959 397 
Q 2419 397 2687 759 
Q 2956 1122 2956 1747 
Q 2956 2369 2687 2733 
Q 2419 3097 1959 3097 
z
M 1959 3584 
Q 2709 3584 3137 3096 
Q 3566 2609 3566 1747 
Q 3566 888 3137 398 
Q 2709 -91 1959 -91 
Q 1206 -91 779 398 
Q 353 888 353 1747 
Q 353 2609 779 3096 
Q 1206 3584 1959 3584 
z
" transform="scale(0.015625)"/>
       <path id="DejaVuSans-66" d="M 2375 4863 
L 2375 4384 
L 1825 4384 
Q 1516 4384 1395 4259 
Q 1275 4134 1275 3809 
L 1275 3500 
L 2222 3500 
L 2222 3053 
L 1275 3053 
L 1275 0 
L 697 0 
L 697 3053 
L 147 3053 
L 147 3500 
L 697 3500 
L 697 3744 
Q 697 4328 969 4595 
Q 1241 4863 1831 4863 
L 2375 4863 
z
" transform="scale(0.015625)"/>
       <path id="DejaVuSans-6c" d="M 603 4863 
L 1178 4863 
L 1178 0 
L 603 0 
L 603 4863 
z
" transform="scale(0.015625)"/>
       <path id="DejaVuSans-75" d="M 544 1381 
L 544 3500 
L 1119 3500 
L 1119 1403 
Q 1119 906 1312 657 
Q 1506 409 1894 409 
Q 2359 409 2629 706 
Q 2900 1003 2900 1516 
L 2900 3500 
L 3475 3500 
L 3475 0 
L 2900 0 
L 2900 538 
Q 2691 219 2414 64 
Q 2138 -91 1772 -91 
Q 1169 -91 856 284 
Q 544 659 544 1381 
z
M 1991 3584 
L 1991 3584 
z
" transform="scale(0.015625)"/>
       <path id="DejaVuSans-78" d="M 3513 3500 
L 2247 1797 
L 3578 0 
L 2900 0 
L 1881 1375 
L 863 0 
L 184 0 
L 1544 1831 
L 300 3500 
L 978 3500 
L 1906 2253 
L 2834 3500 
L 3513 3500 
z
" transform="scale(0.015625)"/>
       <path id="DejaVuSans-3a3" d="M 1353 531 
L 3634 531 
L 3634 0 
L 628 0 
L 628 531 
L 2125 2481 
L 628 4134 
L 628 4666 
L 3578 4666 
L 3578 4134 
L 1353 4134 
L 2850 2494 
L 1353 531 
z
" transform="scale(0.015625)"/>
       <path id="DejaVuSans-Oblique-6a" d="M 928 3500 
L 1503 3500 
L 813 -63 
L 809 -78 
Q 694 -675 544 -897 
Q 403 -1106 132 -1218 
Q -138 -1331 -506 -1331 
L -722 -1331 
L -628 -844 
L -481 -844 
Q -144 -844 -1 -703 
Q 141 -563 238 -63 
L 928 3500 
z
M 1197 4863 
L 1772 4863 
L 1631 4134 
L 1056 4134 
L 1197 4863 
z
" transform="scale(0.015625)"/>
       <path id="DejaVuSans-Oblique-77" d="M 544 3500 
L 1113 3500 
L 1259 684 
L 2566 3500 
L 3231 3500 
L 3425 684 
L 4666 3500 
L 5241 3500 
L 3641 0 
L 2969 0 
L 2797 2900 
L 1459 0 
L 781 0 
L 544 3500 
z
" transform="scale(0.015625)"/>
       <path id="DejaVuSans-Oblique-3d5" d="M 2991 4863 
L 2738 3572 
Q 3363 3572 3684 3094 
Q 4016 2606 3850 1747 
Q 3681 888 3159 400 
Q 2653 -78 2028 -78 
L 1784 -1331 
L 1213 -1331 
L 1456 -78 
Q 834 -78 509 400 
Q 178 888 347 1747 
Q 513 2606 1034 3094 
Q 1544 3572 2166 3572 
L 2419 4863 
L 2991 4863 
z
M 2128 434 
Q 2481 434 2784 756 
Q 3116 1116 3244 1747 
Q 3369 2372 3169 2738 
Q 2991 3059 2638 3059 
L 2128 434 
z
M 1556 434 
L 2066 3059 
Q 1716 3059 1413 2738 
Q 1072 2372 953 1747 
Q 834 1116 1028 756 
Q 1203 434 1556 434 
z
" transform="scale(0.015625)"/>
       <path id="DejaVuSans-29" d="M 513 4856 
L 1013 4856 
Q 1481 4119 1714 3412 
Q 1947 2706 1947 2009 
Q 1947 1309 1714 600 
Q 1481 -109 1013 -844 
L 513 -844 
Q 928 -128 1133 580 
Q 1338 1288 1338 2009 
Q 1338 2731 1133 3434 
Q 928 4138 513 4856 
z
" transform="scale(0.015625)"/>
      </defs>
      <use xlink:href="#DejaVuSans-6d" transform="translate(0 0.015625)"/>
      <use xlink:href="#DejaVuSans-65" transform="translate(97.412109 0.015625)"/>
      <use xlink:href="#DejaVuSans-61" transform="translate(158.935547 0.015625)"/>
      <use xlink:href="#DejaVuSans-6e" transform="translate(220.214844 0.015625)"/>
      <use xlink:href="#DejaVuSans-20" transform="translate(283.59375 0.015625)"/>
      <use xlink:href="#DejaVuSans-64" transform="translate(315.380859 0.015625)"/>
      <use xlink:href="#DejaVuSans-72" transform="translate(378.857422 0.015625)"/>
      <use xlink:href="#DejaVuSans-69" transform="translate(419.970703 0.015625)"/>
      <use xlink:href="#DejaVuSans-76" transform="translate(447.753906 0.015625)"/>
      <use xlink:href="#DejaVuSans-65" transform="translate(506.933594 0.015625)"/>
      <use xlink:href="#DejaVuSans-20" transform="translate(568.457031 0.015625)"/>
      <use xlink:href="#DejaVuSans-20" transform="translate(600.244141 0.015625)"/>
      <use xlink:href="#DejaVuSans-Oblique-3bc" transform="translate(632.03125 0.015625)"/>
      <use xlink:href="#DejaVuSans-20" transform="translate(695.654297 0.015625)"/>
      <use xlink:href="#DejaVuSans-20" transform="translate(727.441406 0.015625)"/>
      <use xlink:href="#DejaVuSans-28" transform="translate(759.228516 0.015625)"/>
      <use xlink:href="#DejaVuSans-73" transform="translate(798.242188 0.015625)"/>
      <use xlink:href="#DejaVuSans-65" transform="translate(850.341797 0.015625)"/>
      <use xlink:href="#DejaVuSans-74" transform="translate(911.865234 0.015625)"/>
      <use xlink:href="#DejaVuSans-20" transform="translate(951.074219 0.015625)"/>
      <use xlink:href="#DejaVuSans-62" transform="translate(982.861328 0.015625)"/>
      <use xlink:href="#DejaVuSans-79" transform="translate(1046.337891 0.015625)"/>
      <use xlink:href="#DejaVuSans-20" transform="translate(1105.517578 0.015625)"/>
      <use xlink:href="#DejaVuSans-77" transform="translate(1137.304688 0.015625)"/>
      <use xlink:href="#DejaVuSans-65" transform="translate(1219.091797 0.015625)"/>
      <use xlink:href="#DejaVuSans-69" transform="translate(1280.615234 0.015625)"/>
      <use xlink:href="#DejaVuSans-67" transform="translate(1308.398438 0.015625)"/>
      <use xlink:href="#DejaVuSans-68" transform="translate(1371.875 0.015625)"/>
      <use xlink:href="#DejaVuSans-74" transform="translate(1435.253906 0.015625)"/>
      <use xlink:href="#DejaVuSans-65" transform="translate(1474.462891 0.015625)"/>
      <use xlink:href="#DejaVuSans-64" transform="translate(1535.986328 0.015625)"/>
      <use xlink:href="#DejaVuSans-20" transform="translate(1599.462891 0.015625)"/>
      <use xlink:href="#DejaVuSans-70" transform="translate(1631.25 0.015625)"/>
      <use xlink:href="#DejaVuSans-68" transform="translate(1694.726562 0.015625)"/>
      <use xlink:href="#DejaVuSans-6f" transform="translate(1758.105469 0.015625)"/>
      <use xlink:href="#DejaVuSans-74" transform="translate(1819.287109 0.015625)"/>
      <use xlink:href="#DejaVuSans-6f" transform="translate(1858.496094 0.015625)"/>
      <use xlink:href="#DejaVuSans-6e" transform="translate(1919.677734 0.015625)"/>
      <use xlink:href="#DejaVuSans-20" transform="translate(1983.056641 0.015625)"/>
      <use xlink:href="#DejaVuSans-66" transform="translate(2014.84375 0.015625)"/>
      <use xlink:href="#DejaVuSans-6c" transform="translate(2050.048828 0.015625)"/>
      <use xlink:href="#DejaVuSans-75" transform="translate(2077.832031 0.015625)"/>
      <use xlink:href="#DejaVuSans-78" transform="translate(2141.210938 0.015625)"/>
      <use xlink:href="#DejaVuSans-20" transform="translate(2200.390625 0.015625)"/>
      <use xlink:href="#DejaVuSans-20" transform="translate(2232.177734 0.015625)"/>
      <use xlink:href="#DejaVuSans-3a3" transform="translate(2263.964844 0.015625)"/>
      <use xlink:href="#DejaVuSans-Oblique-6a" transform="translate(2328.105469 -16.390625) scale(0.7)"/>
      <use xlink:href="#DejaVuSans-Oblique-77" transform="translate(2350.288086 0.015625)"/>
      <use xlink:href="#DejaVuSans-Oblique-6a" transform="translate(2432.075195 -16.390625) scale(0.7)"/>
      <use xlink:href="#DejaVuSans-Oblique-3d5" transform="translate(2454.257812 0.015625)"/>
      <use xlink:href="#DejaVuSans-Oblique-6a" transform="translate(2520.224609 -16.390625) scale(0.7)"/>
      <use xlink:href="#DejaVuSans-29" transform="translate(2542.407227 0.015625)"/>
     </g>
    </g>
   </g>
   <g id="matplotlib.axis_2">
    <g id="ytick_1">
     <g id="line2d_11">
      <path d="M 42.8675 264.502584 
L 485.315192 264.502584 
" clip-path="url(#p6dd267a282)" style="fill: none; stroke: #e5e7eb; stroke-width: 0.8; stroke-linecap: square"/>
     </g>
     <g id="line2d_12">
      <defs>
       <path id="me053aebb6c" d="M 0 0 
L -3.5 0 
" style="stroke: #16213e; stroke-width: 0.8"/>
      </defs>
      <g>
       <use xlink:href="#me053aebb6c" x="42.8675" y="264.502584" style="fill: #16213e; stroke: #16213e; stroke-width: 0.8"/>
      </g>
     </g>
     <g id="text_7">
      <!-- 0 -->
      <g style="fill: #16213e" transform="translate(28.86875 268.681725) scale(0.11 -0.11)">
       <use xlink:href="#DejaVuSans-30"/>
      </g>
     </g>
    </g>
    <g id="ytick_2">
     <g id="line2d_13">
      <path d="M 42.8675 235.771283 
L 485.315192 235.771283 
" clip-path="url(#p6dd267a282)" style="fill: none; stroke: #e5e7eb; stroke-width: 0.8; stroke-linecap: square"/>
     </g>
     <g id="line2d_14">
      <g>
       <use xlink:href="#me053aebb6c" x="42.8675" y="235.771283" style="fill: #16213e; stroke: #16213e; stroke-width: 0.8"/>
      </g>
     </g>
     <g id="text_8">
      <!-- 10 -->
      <g style="fill: #16213e" transform="translate(21.87 239.950423) scale(0.11 -0.11)">
       <use xlink:href="#DejaVuSans-31"/>
       <use xlink:href="#DejaVuSans-30" x="63.623047"/>
      </g>
     </g>
    </g>
    <g id="ytick_3">
     <g id="line2d_15">
      <path d="M 42.8675 207.039981 
L 485.315192 207.039981 
" clip-path="url(#p6dd267a282)" style="fill: none; stroke: #e5e7eb; stroke-width: 0.8; stroke-linecap: square"/>
     </g>
     <g id="line2d_16">
      <g>
       <use xlink:href="#me053aebb6c" x="42.8675" y="207.039981" style="fill: #16213e; stroke: #16213e; stroke-width: 0.8"/>
      </g>
     </g>
     <g id="text_9">
      <!-- 20 -->
      <g style="fill: #16213e" transform="translate(21.87 211.219122) scale(0.11 -0.11)">
       <use xlink:href="#DejaVuSans-32"/>
       <use xlink:href="#DejaVuSans-30" x="63.623047"/>
      </g>
     </g>
    </g>
    <g id="ytick_4">
     <g id="line2d_17">
      <path d="M 42.8675 178.308679 
L 485.315192 178.308679 
" clip-path="url(#p6dd267a282)" style="fill: none; stroke: #e5e7eb; stroke-width: 0.8; stroke-linecap: square"/>
     </g>
     <g id="line2d_18">
      <g>
       <use xlink:href="#me053aebb6c" x="42.8675" y="178.308679" style="fill: #16213e; stroke: #16213e; stroke-width: 0.8"/>
      </g>
     </g>
     <g id="text_10">
      <!-- 30 -->
      <g style="fill: #16213e" transform="translate(21.87 182.48782) scale(0.11 -0.11)">
       <defs>
        <path id="DejaVuSans-33" d="M 2597 2516 
Q 3050 2419 3304 2112 
Q 3559 1806 3559 1356 
Q 3559 666 3084 287 
Q 2609 -91 1734 -91 
Q 1441 -91 1130 -33 
Q 819 25 488 141 
L 488 750 
Q 750 597 1062 519 
Q 1375 441 1716 441 
Q 2309 441 2620 675 
Q 2931 909 2931 1356 
Q 2931 1769 2642 2001 
Q 2353 2234 1838 2234 
L 1294 2234 
L 1294 2753 
L 1863 2753 
Q 2328 2753 2575 2939 
Q 2822 3125 2822 3475 
Q 2822 3834 2567 4026 
Q 2313 4219 1838 4219 
Q 1578 4219 1281 4162 
Q 984 4106 628 3988 
L 628 4550 
Q 988 4650 1302 4700 
Q 1616 4750 1894 4750 
Q 2613 4750 3031 4423 
Q 3450 4097 3450 3541 
Q 3450 3153 3228 2886 
Q 3006 2619 2597 2516 
z
" transform="scale(0.015625)"/>
       </defs>
       <use xlink:href="#DejaVuSans-33"/>
       <use xlink:href="#DejaVuSans-30" x="63.623047"/>
      </g>
     </g>
    </g>
    <g id="ytick_5">
     <g id="line2d_19">
      <path d="M 42.8675 149.577378 
L 485.315192 149.577378 
" clip-path="url(#p6dd267a282)" style="fill: none; stroke: #e5e7eb; stroke-width: 0.8; stroke-linecap: square"/>
     </g>
     <g id="line2d_20">
      <g>
       <use xlink:href="#me053aebb6c" x="42.8675" y="149.577378" style="fill: #16213e; stroke: #16213e; stroke-width: 0.8"/>
      </g>
     </g>
     <g id="text_11">
      <!-- 40 -->
      <g style="fill: #16213e" transform="translate(21.87 153.756518) scale(0.11 -0.11)">
       <defs>
        <path id="DejaVuSans-34" d="M 2419 4116 
L 825 1625 
L 2419 1625 
L 2419 4116 
z
M 2253 4666 
L 3047 4666 
L 3047 1625 
L 3713 1625 
L 3713 1100 
L 3047 1100 
L 3047 0 
L 2419 0 
L 2419 1100 
L 313 1100 
L 313 1709 
L 2253 4666 
z
" transform="scale(0.015625)"/>
       </defs>
       <use xlink:href="#DejaVuSans-34"/>
       <use xlink:href="#DejaVuSans-30" x="63.623047"/>
      </g>
     </g>
    </g>
    <g id="ytick_6">
     <g id="line2d_21">
      <path d="M 42.8675 120.846076 
L 485.315192 120.846076 
" clip-path="url(#p6dd267a282)" style="fill: none; stroke: #e5e7eb; stroke-width: 0.8; stroke-linecap: square"/>
     </g>
     <g id="line2d_22">
      <g>
       <use xlink:href="#me053aebb6c" x="42.8675" y="120.846076" style="fill: #16213e; stroke: #16213e; stroke-width: 0.8"/>
      </g>
     </g>
     <g id="text_12">
      <!-- 50 -->
      <g style="fill: #16213e" transform="translate(21.87 125.025217) scale(0.11 -0.11)">
       <use xlink:href="#DejaVuSans-35"/>
       <use xlink:href="#DejaVuSans-30" x="63.623047"/>
      </g>
     </g>
    </g>
    <g id="ytick_7">
     <g id="line2d_23">
      <path d="M 42.8675 92.114774 
L 485.315192 92.114774 
" clip-path="url(#p6dd267a282)" style="fill: none; stroke: #e5e7eb; stroke-width: 0.8; stroke-linecap: square"/>
     </g>
     <g id="line2d_24">
      <g>
       <use xlink:href="#me053aebb6c" x="42.8675" y="92.114774" style="fill: #16213e; stroke: #16213e; stroke-width: 0.8"/>
      </g>
     </g>
     <g id="text_13">
      <!-- 60 -->
      <g style="fill: #16213e" transform="translate(21.87 96.293915) scale(0.11 -0.11)">
       <defs>
        <path id="DejaVuSans-36" d="M 2113 2584 
Q 1688 2584 1439 2293 
Q 1191 2003 1191 1497 
Q 1191 994 1439 701 
Q 1688 409 2113 409 
Q 2538 409 2786 701 
Q 3034 994 3034 1497 
Q 3034 2003 2786 2293 
Q 2538 2584 2113 2584 
z
M 3366 4563 
L 3366 3988 
Q 3128 4100 2886 4159 
Q 2644 4219 2406 4219 
Q 1781 4219 1451 3797 
Q 1122 3375 1075 2522 
Q 1259 2794 1537 2939 
Q 1816 3084 2150 3084 
Q 2853 3084 3261 2657 
Q 3669 2231 3669 1497 
Q 3669 778 3244 343 
Q 2819 -91 2113 -91 
Q 1303 -91 875 529 
Q 447 1150 447 2328 
Q 447 3434 972 4092 
Q 1497 4750 2381 4750 
Q 2619 4750 2861 4703 
Q 3103 4656 3366 4563 
z
" transform="scale(0.015625)"/>
       </defs>
       <use xlink:href="#DejaVuSans-36"/>
       <use xlink:href="#DejaVuSans-30" x="63.623047"/>
      </g>
     </g>
    </g>
    <g id="ytick_8">
     <g id="line2d_25">
      <path d="M 42.8675 63.383473 
L 485.315192 63.383473 
" clip-path="url(#p6dd267a282)" style="fill: none; stroke: #e5e7eb; stroke-width: 0.8; stroke-linecap: square"/>
     </g>
     <g id="line2d_26">
      <g>
       <use xlink:href="#me053aebb6c" x="42.8675" y="63.383473" style="fill: #16213e; stroke: #16213e; stroke-width: 0.8"/>
      </g>
     </g>
     <g id="text_14">
      <!-- 70 -->
      <g style="fill: #16213e" transform="translate(21.87 67.562613) scale(0.11 -0.11)">
       <defs>
        <path id="DejaVuSans-37" d="M 525 4666 
L 3525 4666 
L 3525 4397 
L 1831 0 
L 1172 0 
L 2766 4134 
L 525 4134 
L 525 4666 
z
" transform="scale(0.015625)"/>
       </defs>
       <use xlink:href="#DejaVuSans-37"/>
       <use xlink:href="#DejaVuSans-30" x="63.623047"/>
      </g>
     </g>
    </g>
    <g id="ytick_9">
     <g id="line2d_27">
      <path d="M 42.8675 34.652171 
L 485.315192 34.652171 
" clip-path="url(#p6dd267a282)" style="fill: none; stroke: #e5e7eb; stroke-width: 0.8; stroke-linecap: square"/>
     </g>
     <g id="line2d_28">
      <g>
       <use xlink:href="#me053aebb6c" x="42.8675" y="34.652171" style="fill: #16213e; stroke: #16213e; stroke-width: 0.8"/>
      </g>
     </g>
     <g id="text_15">
      <!-- 80 -->
      <g style="fill: #16213e" transform="translate(21.87 38.831312) scale(0.11 -0.11)">
       <defs>
        <path id="DejaVuSans-38" d="M 2034 2216 
Q 1584 2216 1326 1975 
Q 1069 1734 1069 1313 
Q 1069 891 1326 650 
Q 1584 409 2034 409 
Q 2484 409 2743 651 
Q 3003 894 3003 1313 
Q 3003 1734 2745 1975 
Q 2488 2216 2034 2216 
z
M 1403 2484 
Q 997 2584 770 2862 
Q 544 3141 544 3541 
Q 544 4100 942 4425 
Q 1341 4750 2034 4750 
Q 2731 4750 3128 4425 
Q 3525 4100 3525 3541 
Q 3525 3141 3298 2862 
Q 3072 2584 2669 2484 
Q 3125 2378 3379 2068 
Q 3634 1759 3634 1313 
Q 3634 634 3220 271 
Q 2806 -91 2034 -91 
Q 1263 -91 848 271 
Q 434 634 434 1313 
Q 434 1759 690 2068 
Q 947 2378 1403 2484 
z
M 1172 3481 
Q 1172 3119 1398 2916 
Q 1625 2713 2034 2713 
Q 2441 2713 2670 2916 
Q 2900 3119 2900 3481 
Q 2900 3844 2670 4047 
Q 2441 4250 2034 4250 
Q 1625 4250 1398 4047 
Q 1172 3844 1172 3481 
z
" transform="scale(0.015625)"/>
       </defs>
       <use xlink:href="#DejaVuSans-38"/>
       <use xlink:href="#DejaVuSans-30" x="63.623047"/>
      </g>
     </g>
    </g>
    <g id="text_16">
     <!-- output spike rate  $\nu = \Phi(\mu,\sigma)$  (Hz) -->
     <g style="fill: #16213e" transform="translate(15.56 237.620276) rotate(-90) scale(0.11 -0.11)">
      <defs>
       <path id="DejaVuSans-6b" d="M 581 4863 
L 1159 4863 
L 1159 1991 
L 2875 3500 
L 3609 3500 
L 1753 1863 
L 3688 0 
L 2938 0 
L 1159 1709 
L 1159 0 
L 581 0 
L 581 4863 
z
" transform="scale(0.015625)"/>
       <path id="DejaVuSans-Oblique-3bd" d="M 959 0 
L 572 3500 
L 1191 3500 
L 1522 563 
Q 1972 950 2391 1488 
Q 2706 1891 2788 2241 
Q 2825 2406 2809 2719 
Q 2794 3091 2544 3500 
L 3125 3500 
L 3125 3500 
Q 3288 3222 3353 2834 
Q 3416 2478 3369 2234 
Q 3250 1622 2719 1075 
Q 2025 363 1572 0 
L 959 0 
z
" transform="scale(0.015625)"/>
       <path id="DejaVuSans-3d" d="M 678 2906 
L 4684 2906 
L 4684 2381 
L 678 2381 
L 678 2906 
z
M 678 1631 
L 4684 1631 
L 4684 1100 
L 678 1100 
L 678 1631 
z
" transform="scale(0.015625)"/>
       <path id="DejaVuSans-3a6" d="M 2206 3644 
Q 1738 3578 1431 3306 
Q 1025 2947 1025 2328 
Q 1025 1713 1431 1353 
Q 1738 1081 2206 1016 
L 2206 3644 
z
M 2838 1016 
Q 3306 1081 3613 1353 
Q 4013 1713 4013 2328 
Q 4013 2947 3613 3306 
Q 3306 3578 2838 3644 
L 2838 1016 
z
M 2206 494 
Q 1444 563 950 981 
Q 359 1481 359 2328 
Q 359 3175 950 3678 
Q 1441 4100 2206 4169 
L 2206 4666 
L 2838 4666 
L 2838 4169 
Q 3600 4097 4091 3678 
Q 4678 3175 4678 2328 
Q 4678 1484 4091 981 
Q 3600 563 2838 491 
L 2838 0 
L 2206 0 
L 2206 494 
z
" transform="scale(0.015625)"/>
       <path id="DejaVuSans-2c" d="M 750 794 
L 1409 794 
L 1409 256 
L 897 -744 
L 494 -744 
L 750 256 
L 750 794 
z
" transform="scale(0.015625)"/>
       <path id="DejaVuSans-Oblique-3c3" d="M 2219 3044 
Q 1744 3044 1422 2700 
Q 1081 2341 969 1747 
Q 844 1119 1044 756 
Q 1241 397 1706 397 
Q 2166 397 2503 759 
Q 2844 1122 2966 1747 
Q 3075 2319 2881 2700 
Q 2700 3044 2219 3044 
z
M 2309 3503 
L 4219 3500 
L 4106 2925 
L 3463 2925 
Q 3706 2438 3575 1747 
Q 3406 888 2884 400 
Q 2359 -91 1609 -91 
Q 856 -91 525 400 
Q 194 888 363 1747 
Q 528 2609 1050 3097 
Q 1484 3503 2309 3503 
z
" transform="scale(0.015625)"/>
       <path id="DejaVuSans-48" d="M 628 4666 
L 1259 4666 
L 1259 2753 
L 3553 2753 
L 3553 4666 
L 4184 4666 
L 4184 0 
L 3553 0 
L 3553 2222 
L 1259 2222 
L 1259 0 
L 628 0 
L 628 4666 
z
" transform="scale(0.015625)"/>
       <path id="DejaVuSans-7a" d="M 353 3500 
L 3084 3500 
L 3084 2975 
L 922 459 
L 3084 459 
L 3084 0 
L 275 0 
L 275 525 
L 2438 3041 
L 353 3041 
L 353 3500 
z
" transform="scale(0.015625)"/>
      </defs>
      <use xlink:href="#DejaVuSans-6f" transform="translate(0 0.015625)"/>
      <use xlink:href="#DejaVuSans-75" transform="translate(61.181641 0.015625)"/>
      <use xlink:href="#DejaVuSans-74" transform="translate(124.560547 0.015625)"/>
      <use xlink:href="#DejaVuSans-70" transform="translate(163.769531 0.015625)"/>
      <use xlink:href="#DejaVuSans-75" transform="translate(227.246094 0.015625)"/>
      <use xlink:href="#DejaVuSans-74" transform="translate(290.625 0.015625)"/>
      <use xlink:href="#DejaVuSans-20" transform="translate(329.833984 0.015625)"/>
      <use xlink:href="#DejaVuSans-73" transform="translate(361.621094 0.015625)"/>
      <use xlink:href="#DejaVuSans-70" transform="translate(413.720703 0.015625)"/>
      <use xlink:href="#DejaVuSans-69" transform="translate(477.197266 0.015625)"/>
      <use xlink:href="#DejaVuSans-6b" transform="translate(504.980469 0.015625)"/>
      <use xlink:href="#DejaVuSans-65" transform="translate(562.890625 0.015625)"/>
      <use xlink:href="#DejaVuSans-20" transform="translate(624.414062 0.015625)"/>
      <use xlink:href="#DejaVuSans-72" transform="translate(656.201172 0.015625)"/>
      <use xlink:href="#DejaVuSans-61" transform="translate(697.314453 0.015625)"/>
      <use xlink:href="#DejaVuSans-74" transform="translate(758.59375 0.015625)"/>
      <use xlink:href="#DejaVuSans-65" transform="translate(797.802734 0.015625)"/>
      <use xlink:href="#DejaVuSans-20" transform="translate(859.326172 0.015625)"/>
      <use xlink:href="#DejaVuSans-20" transform="translate(891.113281 0.015625)"/>
      <use xlink:href="#DejaVuSans-Oblique-3bd" transform="translate(922.900391 0.015625)"/>
      <use xlink:href="#DejaVuSans-3d" transform="translate(998.242188 0.015625)"/>
      <use xlink:href="#DejaVuSans-3a6" transform="translate(1101.513672 0.015625)"/>
      <use xlink:href="#DejaVuSans-28" transform="translate(1180.224609 0.015625)"/>
      <use xlink:href="#DejaVuSans-Oblique-3bc" transform="translate(1219.238281 0.015625)"/>
      <use xlink:href="#DejaVuSans-2c" transform="translate(1282.861328 0.015625)"/>
      <use xlink:href="#DejaVuSans-Oblique-3c3" transform="translate(1334.130859 0.015625)"/>
      <use xlink:href="#DejaVuSans-29" transform="translate(1397.509766 0.015625)"/>
      <use xlink:href="#DejaVuSans-20" transform="translate(1436.523438 0.015625)"/>
      <use xlink:href="#DejaVuSans-20" transform="translate(1468.310547 0.015625)"/>
      <use xlink:href="#DejaVuSans-28" transform="translate(1500.097656 0.015625)"/>
      <use xlink:href="#DejaVuSans-48" transform="translate(1539.111328 0.015625)"/>
      <use xlink:href="#DejaVuSans-7a" transform="translate(1614.306641 0.015625)"/>
      <use xlink:href="#DejaVuSans-29" transform="translate(1666.796875 0.015625)"/>
     </g>
    </g>
   </g>
   <g id="line2d_29">
    <path d="M 62.978759 264.502128 
L 126.930879 264.391678 
L 143.760384 264.145672 
L 155.541037 263.749607 
L 163.95579 263.265672 
L 170.687592 262.70361 
L 177.419394 261.938375 
L 184.151196 260.920964 
L 189.200048 259.961674 
L 194.248899 258.810538 
L 199.297751 257.447659 
L 204.346603 255.855443 
L 209.395454 254.019505 
L 214.444306 251.929424 
L 219.493157 249.57929 
L 224.542009 246.967977 
L 229.59086 244.099126 
L 234.639712 240.98086 
L 239.688564 237.625267 
L 244.737415 234.047707 
L 251.469217 228.963451 
L 258.201019 223.563093 
L 264.932821 217.895322 
L 273.347574 210.50759 
L 283.445277 201.312543 
L 296.908881 188.704466 
L 349.080348 139.47834 
L 364.226902 125.62781 
L 379.373457 112.074673 
L 394.520012 98.830023 
L 409.666566 85.893566 
L 424.813121 73.258769 
L 439.959676 60.915957 
L 455.10623 48.854383 
L 465.203934 40.961274 
L 465.203934 40.961274 
" clip-path="url(#p6dd267a282)" style="fill: none; stroke: #7c3aed; stroke-width: 2.6; stroke-linecap: square"/>
   </g>
   <g id="line2d_30">
    <path d="M 337.223196 264.502584 
L 337.223196 23.077969 
" clip-path="url(#p6dd267a282)" style="fill: none; stroke-dasharray: 3.7,1.6; stroke-dashoffset: 0; stroke: #94a3b8"/>
   </g>
   <g id="patch_3">
    <path d="M 42.8675 264.502584 
L 42.8675 23.077969 
" style="fill: none; stroke: #16213e; stroke-width: 0.8; stroke-linejoin: miter; stroke-linecap: square"/>
   </g>
   <g id="patch_4">
    <path d="M 42.8675 264.502584 
L 485.315192 264.502584 
" style="fill: none; stroke: #16213e; stroke-width: 0.8; stroke-linejoin: miter; stroke-linecap: square"/>
   </g>
   <g id="text_17">
    <!-- threshold $V_{\rm th}$ -->
    <g style="fill: #94a3b8" transform="translate(342.708085 250.136933) scale(0.09 -0.09)">
     <defs>
      <path id="DejaVuSans-Oblique-56" d="M 1319 0 
L 500 4666 
L 1119 4666 
L 1797 653 
L 4063 4666 
L 4750 4666 
L 2053 0 
L 1319 0 
z
" transform="scale(0.015625)"/>
     </defs>
     <use xlink:href="#DejaVuSans-74" transform="translate(0 0.015625)"/>
     <use xlink:href="#DejaVuSans-68" transform="translate(39.208984 0.015625)"/>
     <use xlink:href="#DejaVuSans-72" transform="translate(102.587891 0.015625)"/>
     <use xlink:href="#DejaVuSans-65" transform="translate(143.701172 0.015625)"/>
     <use xlink:href="#DejaVuSans-73" transform="translate(205.224609 0.015625)"/>
     <use xlink:href="#DejaVuSans-68" transform="translate(257.324219 0.015625)"/>
     <use xlink:href="#DejaVuSans-6f" transform="translate(320.703125 0.015625)"/>
     <use xlink:href="#DejaVuSans-6c" transform="translate(381.884766 0.015625)"/>
     <use xlink:href="#DejaVuSans-64" transform="translate(409.667969 0.015625)"/>
     <use xlink:href="#DejaVuSans-20" transform="translate(473.144531 0.015625)"/>
     <use xlink:href="#DejaVuSans-Oblique-56" transform="translate(504.931641 0.015625)"/>
     <use xlink:href="#DejaVuSans-74" transform="translate(573.339844 -16.390625) scale(0.7)"/>
     <use xlink:href="#DejaVuSans-68" transform="translate(600.786133 -16.390625) scale(0.7)"/>
    </g>
   </g>
   <g id="text_18">
    <!-- The activation is not designed, it emerges (Siegert) -->
    <g style="fill: #16213e" transform="translate(74.195877 17.077969) scale(0.13 -0.13)">
     <defs>
      <path id="DejaVuSans-Bold-54" d="M 31 4666 
L 4331 4666 
L 4331 3756 
L 2784 3756 
L 2784 0 
L 1581 0 
L 1581 3756 
L 31 3756 
L 31 4666 
z
" transform="scale(0.015625)"/>
      <path id="DejaVuSans-Bold-68" d="M 4056 2131 
L 4056 0 
L 2931 0 
L 2931 347 
L 2931 1625 
Q 2931 2084 2911 2256 
Q 2891 2428 2841 2509 
Q 2775 2619 2662 2680 
Q 2550 2741 2406 2741 
Q 2056 2741 1856 2470 
Q 1656 2200 1656 1722 
L 1656 0 
L 538 0 
L 538 4863 
L 1656 4863 
L 1656 2988 
Q 1909 3294 2193 3439 
Q 2478 3584 2822 3584 
Q 3428 3584 3742 3212 
Q 4056 2841 4056 2131 
z
" transform="scale(0.015625)"/>
      <path id="DejaVuSans-Bold-65" d="M 4031 1759 
L 4031 1441 
L 1416 1441 
Q 1456 1047 1700 850 
Q 1944 653 2381 653 
Q 2734 653 3104 758 
Q 3475 863 3866 1075 
L 3866 213 
Q 3469 63 3072 -14 
Q 2675 -91 2278 -91 
Q 1328 -91 801 392 
Q 275 875 275 1747 
Q 275 2603 792 3093 
Q 1309 3584 2216 3584 
Q 3041 3584 3536 3087 
Q 4031 2591 4031 1759 
z
M 2881 2131 
Q 2881 2450 2695 2645 
Q 2509 2841 2209 2841 
Q 1884 2841 1681 2658 
Q 1478 2475 1428 2131 
L 2881 2131 
z
" transform="scale(0.015625)"/>
      <path id="DejaVuSans-Bold-20" transform="scale(0.015625)"/>
      <path id="DejaVuSans-Bold-61" d="M 2106 1575 
Q 1756 1575 1579 1456 
Q 1403 1338 1403 1106 
Q 1403 894 1545 773 
Q 1688 653 1941 653 
Q 2256 653 2472 879 
Q 2688 1106 2688 1447 
L 2688 1575 
L 2106 1575 
z
M 3816 1997 
L 3816 0 
L 2688 0 
L 2688 519 
Q 2463 200 2181 54 
Q 1900 -91 1497 -91 
Q 953 -91 614 226 
Q 275 544 275 1050 
Q 275 1666 698 1953 
Q 1122 2241 2028 2241 
L 2688 2241 
L 2688 2328 
Q 2688 2594 2478 2717 
Q 2269 2841 1825 2841 
Q 1466 2841 1156 2769 
Q 847 2697 581 2553 
L 581 3406 
Q 941 3494 1303 3539 
Q 1666 3584 2028 3584 
Q 2975 3584 3395 3211 
Q 3816 2838 3816 1997 
z
" transform="scale(0.015625)"/>
      <path id="DejaVuSans-Bold-63" d="M 3366 3391 
L 3366 2478 
Q 3138 2634 2908 2709 
Q 2678 2784 2431 2784 
Q 1963 2784 1702 2511 
Q 1441 2238 1441 1747 
Q 1441 1256 1702 982 
Q 1963 709 2431 709 
Q 2694 709 2930 787 
Q 3166 866 3366 1019 
L 3366 103 
Q 3103 6 2833 -42 
Q 2563 -91 2291 -91 
Q 1344 -91 809 395 
Q 275 881 275 1747 
Q 275 2613 809 3098 
Q 1344 3584 2291 3584 
Q 2566 3584 2833 3536 
Q 3100 3488 3366 3391 
z
" transform="scale(0.015625)"/>
      <path id="DejaVuSans-Bold-74" d="M 1759 4494 
L 1759 3500 
L 2913 3500 
L 2913 2700 
L 1759 2700 
L 1759 1216 
Q 1759 972 1856 886 
Q 1953 800 2241 800 
L 2816 800 
L 2816 0 
L 1856 0 
Q 1194 0 917 276 
Q 641 553 641 1216 
L 641 2700 
L 84 2700 
L 84 3500 
L 641 3500 
L 641 4494 
L 1759 4494 
z
" transform="scale(0.015625)"/>
      <path id="DejaVuSans-Bold-69" d="M 538 3500 
L 1656 3500 
L 1656 0 
L 538 0 
L 538 3500 
z
M 538 4863 
L 1656 4863 
L 1656 3950 
L 538 3950 
L 538 4863 
z
" transform="scale(0.015625)"/>
      <path id="DejaVuSans-Bold-76" d="M 97 3500 
L 1216 3500 
L 2088 1081 
L 2956 3500 
L 4078 3500 
L 2700 0 
L 1472 0 
L 97 3500 
z
" transform="scale(0.015625)"/>
      <path id="DejaVuSans-Bold-6f" d="M 2203 2784 
Q 1831 2784 1636 2517 
Q 1441 2250 1441 1747 
Q 1441 1244 1636 976 
Q 1831 709 2203 709 
Q 2569 709 2762 976 
Q 2956 1244 2956 1747 
Q 2956 2250 2762 2517 
Q 2569 2784 2203 2784 
z
M 2203 3584 
Q 3106 3584 3614 3096 
Q 4122 2609 4122 1747 
Q 4122 884 3614 396 
Q 3106 -91 2203 -91 
Q 1297 -91 786 396 
Q 275 884 275 1747 
Q 275 2609 786 3096 
Q 1297 3584 2203 3584 
z
" transform="scale(0.015625)"/>
      <path id="DejaVuSans-Bold-6e" d="M 4056 2131 
L 4056 0 
L 2931 0 
L 2931 347 
L 2931 1631 
Q 2931 2084 2911 2256 
Q 2891 2428 2841 2509 
Q 2775 2619 2662 2680 
Q 2550 2741 2406 2741 
Q 2056 2741 1856 2470 
Q 1656 2200 1656 1722 
L 1656 0 
L 538 0 
L 538 3500 
L 1656 3500 
L 1656 2988 
Q 1909 3294 2193 3439 
Q 2478 3584 2822 3584 
Q 3428 3584 3742 3212 
Q 4056 2841 4056 2131 
z
" transform="scale(0.015625)"/>
      <path id="DejaVuSans-Bold-73" d="M 3272 3391 
L 3272 2541 
Q 2913 2691 2578 2766 
Q 2244 2841 1947 2841 
Q 1628 2841 1473 2761 
Q 1319 2681 1319 2516 
Q 1319 2381 1436 2309 
Q 1553 2238 1856 2203 
L 2053 2175 
Q 2913 2066 3209 1816 
Q 3506 1566 3506 1031 
Q 3506 472 3093 190 
Q 2681 -91 1863 -91 
Q 1516 -91 1145 -36 
Q 775 19 384 128 
L 384 978 
Q 719 816 1070 734 
Q 1422 653 1784 653 
Q 2113 653 2278 743 
Q 2444 834 2444 1013 
Q 2444 1163 2330 1236 
Q 2216 1309 1875 1350 
L 1678 1375 
Q 931 1469 631 1722 
Q 331 1975 331 2491 
Q 331 3047 712 3315 
Q 1094 3584 1881 3584 
Q 2191 3584 2531 3537 
Q 2872 3491 3272 3391 
z
" transform="scale(0.015625)"/>
      <path id="DejaVuSans-Bold-64" d="M 2919 2988 
L 2919 4863 
L 4044 4863 
L 4044 0 
L 2919 0 
L 2919 506 
Q 2688 197 2409 53 
Q 2131 -91 1766 -91 
Q 1119 -91 703 423 
Q 288 938 288 1747 
Q 288 2556 703 3070 
Q 1119 3584 1766 3584 
Q 2128 3584 2408 3439 
Q 2688 3294 2919 2988 
z
M 2181 722 
Q 2541 722 2730 984 
Q 2919 1247 2919 1747 
Q 2919 2247 2730 2509 
Q 2541 2772 2181 2772 
Q 1825 2772 1636 2509 
Q 1447 2247 1447 1747 
Q 1447 1247 1636 984 
Q 1825 722 2181 722 
z
" transform="scale(0.015625)"/>
      <path id="DejaVuSans-Bold-67" d="M 2919 594 
Q 2688 288 2409 144 
Q 2131 0 1766 0 
Q 1125 0 706 504 
Q 288 1009 288 1791 
Q 288 2575 706 3076 
Q 1125 3578 1766 3578 
Q 2131 3578 2409 3434 
Q 2688 3291 2919 2981 
L 2919 3500 
L 4044 3500 
L 4044 353 
Q 4044 -491 3511 -936 
Q 2978 -1381 1966 -1381 
Q 1638 -1381 1331 -1331 
Q 1025 -1281 716 -1178 
L 716 -306 
Q 1009 -475 1290 -558 
Q 1572 -641 1856 -641 
Q 2406 -641 2662 -400 
Q 2919 -159 2919 353 
L 2919 594 
z
M 2181 2772 
Q 1834 2772 1640 2515 
Q 1447 2259 1447 1791 
Q 1447 1309 1634 1061 
Q 1822 813 2181 813 
Q 2531 813 2725 1069 
Q 2919 1325 2919 1791 
Q 2919 2259 2725 2515 
Q 2531 2772 2181 2772 
z
" transform="scale(0.015625)"/>
      <path id="DejaVuSans-Bold-2c" d="M 653 1209 
L 1778 1209 
L 1778 256 
L 1006 -909 
L 341 -909 
L 653 256 
L 653 1209 
z
" transform="scale(0.015625)"/>
      <path id="DejaVuSans-Bold-6d" d="M 3781 2919 
Q 3994 3244 4286 3414 
Q 4578 3584 4928 3584 
Q 5531 3584 5847 3212 
Q 6163 2841 6163 2131 
L 6163 0 
L 5038 0 
L 5038 1825 
Q 5041 1866 5042 1909 
Q 5044 1953 5044 2034 
Q 5044 2406 4934 2573 
Q 4825 2741 4581 2741 
Q 4263 2741 4089 2478 
Q 3916 2216 3909 1719 
L 3909 0 
L 2784 0 
L 2784 1825 
Q 2784 2406 2684 2573 
Q 2584 2741 2328 2741 
Q 2006 2741 1831 2477 
Q 1656 2213 1656 1722 
L 1656 0 
L 531 0 
L 531 3500 
L 1656 3500 
L 1656 2988 
Q 1863 3284 2130 3434 
Q 2397 3584 2719 3584 
Q 3081 3584 3359 3409 
Q 3638 3234 3781 2919 
z
" transform="scale(0.015625)"/>
      <path id="DejaVuSans-Bold-72" d="M 3138 2547 
Q 2991 2616 2845 2648 
Q 2700 2681 2553 2681 
Q 2122 2681 1889 2404 
Q 1656 2128 1656 1613 
L 1656 0 
L 538 0 
L 538 3500 
L 1656 3500 
L 1656 2925 
Q 1872 3269 2151 3426 
Q 2431 3584 2822 3584 
Q 2878 3584 2943 3579 
Q 3009 3575 3134 3559 
L 3138 2547 
z
" transform="scale(0.015625)"/>
      <path id="DejaVuSans-Bold-28" d="M 2413 -844 
L 1484 -844 
Q 1006 -72 778 623 
Q 550 1319 550 2003 
Q 550 2688 779 3389 
Q 1009 4091 1484 4856 
L 2413 4856 
Q 2013 4116 1813 3408 
Q 1613 2700 1613 2009 
Q 1613 1319 1811 609 
Q 2009 -100 2413 -844 
z
" transform="scale(0.015625)"/>
      <path id="DejaVuSans-Bold-53" d="M 3834 4519 
L 3834 3531 
Q 3450 3703 3084 3790 
Q 2719 3878 2394 3878 
Q 1963 3878 1756 3759 
Q 1550 3641 1550 3391 
Q 1550 3203 1689 3098 
Q 1828 2994 2194 2919 
L 2706 2816 
Q 3484 2659 3812 2340 
Q 4141 2022 4141 1434 
Q 4141 663 3683 286 
Q 3225 -91 2284 -91 
Q 1841 -91 1394 -6 
Q 947 78 500 244 
L 500 1259 
Q 947 1022 1364 901 
Q 1781 781 2169 781 
Q 2563 781 2772 912 
Q 2981 1044 2981 1288 
Q 2981 1506 2839 1625 
Q 2697 1744 2272 1838 
L 1806 1941 
Q 1106 2091 782 2419 
Q 459 2747 459 3303 
Q 459 4000 909 4375 
Q 1359 4750 2203 4750 
Q 2588 4750 2994 4692 
Q 3400 4634 3834 4519 
z
" transform="scale(0.015625)"/>
      <path id="DejaVuSans-Bold-29" d="M 513 -844 
Q 913 -100 1113 609 
Q 1313 1319 1313 2009 
Q 1313 2700 1113 3408 
Q 913 4116 513 4856 
L 1441 4856 
Q 1916 4091 2145 3389 
Q 2375 2688 2375 2003 
Q 2375 1319 2147 623 
Q 1919 -72 1441 -844 
L 513 -844 
z
" transform="scale(0.015625)"/>
     </defs>
     <use xlink:href="#DejaVuSans-Bold-54"/>
     <use xlink:href="#DejaVuSans-Bold-68" x="68.212891"/>
     <use xlink:href="#DejaVuSans-Bold-65" x="139.404297"/>
     <use xlink:href="#DejaVuSans-Bold-20" x="207.226562"/>
     <use xlink:href="#DejaVuSans-Bold-61" x="242.041016"/>
     <use xlink:href="#DejaVuSans-Bold-63" x="309.521484"/>
     <use xlink:href="#DejaVuSans-Bold-74" x="368.798828"/>
     <use xlink:href="#DejaVuSans-Bold-69" x="416.601562"/>
     <use xlink:href="#DejaVuSans-Bold-76" x="450.878906"/>
     <use xlink:href="#DejaVuSans-Bold-61" x="516.064453"/>
     <use xlink:href="#DejaVuSans-Bold-74" x="583.544922"/>
     <use xlink:href="#DejaVuSans-Bold-69" x="631.347656"/>
     <use xlink:href="#DejaVuSans-Bold-6f" x="665.625"/>
     <use xlink:href="#DejaVuSans-Bold-6e" x="734.326172"/>
     <use xlink:href="#DejaVuSans-Bold-20" x="805.517578"/>
     <use xlink:href="#DejaVuSans-Bold-69" x="840.332031"/>
     <use xlink:href="#DejaVuSans-Bold-73" x="874.609375"/>
     <use xlink:href="#DejaVuSans-Bold-20" x="934.130859"/>
     <use xlink:href="#DejaVuSans-Bold-6e" x="968.945312"/>
     <use xlink:href="#DejaVuSans-Bold-6f" x="1040.136719"/>
     <use xlink:href="#DejaVuSans-Bold-74" x="1108.837891"/>
     <use xlink:href="#DejaVuSans-Bold-20" x="1156.640625"/>
     <use xlink:href="#DejaVuSans-Bold-64" x="1191.455078"/>
     <use xlink:href="#DejaVuSans-Bold-65" x="1263.037109"/>
     <use xlink:href="#DejaVuSans-Bold-73" x="1330.859375"/>
     <use xlink:href="#DejaVuSans-Bold-69" x="1390.380859"/>
     <use xlink:href="#DejaVuSans-Bold-67" x="1424.658203"/>
     <use xlink:href="#DejaVuSans-Bold-6e" x="1496.240234"/>
     <use xlink:href="#DejaVuSans-Bold-65" x="1567.431641"/>
     <use xlink:href="#DejaVuSans-Bold-64" x="1635.253906"/>
     <use xlink:href="#DejaVuSans-Bold-2c" x="1706.835938"/>
     <use xlink:href="#DejaVuSans-Bold-20" x="1744.824219"/>
     <use xlink:href="#DejaVuSans-Bold-69" x="1779.638672"/>
     <use xlink:href="#DejaVuSans-Bold-74" x="1813.916016"/>
     <use xlink:href="#DejaVuSans-Bold-20" x="1861.71875"/>
     <use xlink:href="#DejaVuSans-Bold-65" x="1896.533203"/>
     <use xlink:href="#DejaVuSans-Bold-6d" x="1964.355469"/>
     <use xlink:href="#DejaVuSans-Bold-65" x="2068.554688"/>
     <use xlink:href="#DejaVuSans-Bold-72" x="2136.376953"/>
     <use xlink:href="#DejaVuSans-Bold-67" x="2185.693359"/>
     <use xlink:href="#DejaVuSans-Bold-65" x="2257.275391"/>
     <use xlink:href="#DejaVuSans-Bold-73" x="2325.097656"/>
     <use xlink:href="#DejaVuSans-Bold-20" x="2384.619141"/>
     <use xlink:href="#DejaVuSans-Bold-28" x="2419.433594"/>
     <use xlink:href="#DejaVuSans-Bold-53" x="2465.136719"/>
     <use xlink:href="#DejaVuSans-Bold-69" x="2537.158203"/>
     <use xlink:href="#DejaVuSans-Bold-65" x="2571.435547"/>
     <use xlink:href="#DejaVuSans-Bold-67" x="2639.257812"/>
     <use xlink:href="#DejaVuSans-Bold-65" x="2710.839844"/>
     <use xlink:href="#DejaVuSans-Bold-72" x="2778.662109"/>
     <use xlink:href="#DejaVuSans-Bold-74" x="2827.978516"/>
     <use xlink:href="#DejaVuSans-Bold-29" x="2875.78125"/>
    </g>
   </g>
  </g>
 </g>
 <defs>
  <clipPath id="p6dd267a282">
   <rect x="42.8675" y="23.077969" width="442.447692" height="241.424615"/>
  </clipPath>
 </defs>
</svg>
